<?xml version="1.0" standalone="no"?>
<!DOCTYPE svg PUBLIC "-//W3C//DTD SVG 1.1//EN" "http://www.w3.org/Graphics/SVG/1.1/DTD/svg11.dtd" >
<svg xmlns="http://www.w3.org/2000/svg">
<metadata>Generated by IcoMoon</metadata>
<defs>
<font id="Tripadvisor" horiz-adv-x="1024">
<font-face units-per-em="1024" ascent="819" descent="-205" />
<missing-glyph horiz-adv-x="1024" />
<glyph unicode="&#x20;" horiz-adv-x="0" d="" />
<glyph unicode="&#xe000;" glyph-name="hotels" d="M878 314c37-30 61-75 61-126v-203h-82v81h-690v-81h-82v203c0 51 24 97 61 126v341h732v-341zM797 574h-570v-118c34 23 76 37 122 37 67 0 126-30 163-75 37 45 96 75 163 75 46 0 88-14 122-38v119zM786 350c-18 36-61 61-111 61s-92-25-111-60h212c3 0 7-1 10-1zM460 351c-19 35-61 60-111 60s-93-25-111-61c3 0 7 1 10 1h212zM167 148h690v40c0 45-36 81-81 81h-528c-45 0-81-36-81-81v-40z" />
<glyph unicode="&#xe001;" glyph-name="restaurants" d="M800-84l-235 235-121-121-71 71-184-185-58 58 185 184-171 171c-39 38-60 89-60 143s21 105 60 143l35 36 314-314 37 37c-18 28-27 60-27 93 0 51 22 104 66 148l109 109 57-58-108-108c-26-25-43-58-43-91 0-12 2-23 6-33l189 188 57-57-189-189c12-5 23-7 36-7h6c28 2 55 15 78 39 60 59 113 113 113 113l58-57s-53-54-113-114c-37-37-84-59-131-62h-12c-34 0-66 10-94 28l-37-36 305-306zM183 534c-11-19-17-40-17-62 0-33 13-63 36-86l242-242 64 65z" />
<glyph unicode="&#xe002;" glyph-name="attractions" d="M469 469c0 24 19 43 43 43s43-19 43-43c0-23-19-42-43-42s-43 19-43 42zM469 320c0 24 19 43 43 43s43-19 43-43-19-43-43-43-43 19-43 43zM469 171c0 23 19 42 43 42s43-19 43-42c0-24-19-43-43-43s-43 19-43 43zM853 555h-682v-64c64-30 106-94 106-171 0-73-42-141-106-171v-64h682v64c-64 30-106 94-106 171 0 73 42 141 106 171v64zM939 640v-213c-60 0-107-47-107-107s47-107 107-107v-213h-854v213c60 0 107 47 107 107s-47 107-107 107v213h854z" />
<glyph unicode="&#xe003;" glyph-name="vacation_rentals" d="M512 747l423-282v-572h-846v572zM850-22v442l-338 225-338-225v-442h676zM386 379c55 0 101-36 118-85h261v-84h-84v-85h-85v85h-92c-17-49-63-85-118-85-70 0-127 57-127 127s57 127 127 127zM386 210c23 0 42 18 42 42 0 23-19 42-42 42-24 0-43-19-43-42 0-24 19-42 43-42z" />
<glyph unicode="&#xe004;" glyph-name="flights" d="M909 717c20-20 29-47 29-77 0-43-20-91-58-129l-88-89 58-352-147-147-132 279-44-44 29-147-118-118-352 353 117 118 147-29 44 43-279 133 147 147 353-59 88 88c39 39 87 60 130 60 29 0 56-10 76-30zM821 570c25 25 34 52 34 70 0 9-2 15-5 18-4 5-12 6-17 6-18 0-45-10-71-35l-119-119-352 59-34-34 173-81 106-51-159-159-43 9-103 21-28-28 235-235 28 27-21 104-8 43 31 32 44 43 83 84 133-279 33 33-52 311-7 42 31 30z" />
<glyph unicode="&#xe005;" glyph-name="guides" d="M917 678c13-5 22-13 22-26v-632c0-12-13-25-26-25h-8c-41 9-83 14-124 14-89 0-178-22-256-65-9-5-17-5-26 0-78 43-166 67-255 67-42 0-84-5-125-16h-8c-13 0-26 13-26 25v632c0 13 9 26 22 30 42 8 89 17 140 17 9 0 17 1 26 1 77 0 157-18 222-57 8-4 17-4 26 0 73 39 149 57 229 57 9 0 18-1 27-1 51 0 98-9 140-21zM853 93v516c-25 0-51 5-76 5h-23c-65 0-129-16-187-43-17-9-35-13-53-13s-36 4-53 13c-58 27-125 43-191 43h-23c-25 0-51-5-76-5v-516c26 4 52 6 79 6 90 0 180-22 262-61 84 40 176 59 268 59 25 0 49-1 73-4z" />
<glyph unicode="&#xe006;" glyph-name="forums" d="M85-75v619h684l-1-491h-453l-139-128h-91zM171 459v-423l111 102h400l1 321h-512zM299 715h640v-449h-86v364h-554v85z" />
<glyph unicode="&#xe007;" glyph-name="cruises" d="M782-21h114v-86h-768v86h103l-101 341 126 65v277h213v42c0 24 19 43 43 43 23 0 43-19 43-43v-42h213v-282l114-61zM341 577v-148l172 88 170-91v151h-342zM232 276l88-297h373l88 298-226 121v-334h-86v335z" />
<glyph unicode="&#xe008;" glyph-name="rental_cars" d="M384 181v86h256v-86h-256zM896 502c24 0 43-19 43-43s-19-43-43-43h-22v-469h-85v85h-554v-85h-86v469h-21c-24 0-43 19-43 43s19 43 43 43h53l84 191h495l82-191h54zM321 608l-83-191h548l-82 191h-383zM235 118h554v214h-554v-214z" />
<glyph unicode="&#xe009;" glyph-name="ta_ollie" d="M223 277c0 42 34 75 76 75s75-33 75-75-33-76-75-76-76 34-76 76zM650 277c0 42 33 75 75 75s76-33 76-75-34-76-76-76-75 34-75 76zM939 510l-70-76c44-40 69-97 69-157 0-118-95-213-213-213-54 0-105 20-145 56l-68-74-68 74c-40-36-91-56-145-56-118 0-213 95-213 213 0 60 25 117 69 157l-70 76h155c82 56 177 84 272 84s190-28 272-84h155zM299 132c79 0 144 65 144 145 0 79-65 144-144 144-80 0-145-65-145-144 0-80 65-145 145-145zM512 281c0 95 69 176 160 211-51 22-106 32-160 32s-109-10-160-32c91-35 160-116 160-211zM869 277c0 79-64 144-144 144-79 0-144-65-144-144 0-80 65-145 144-145 80 0 144 65 144 145z" />
<glyph unicode="&#xe00a;" glyph-name="bubble_rating_bg" d="M602 36c-51-29-105-43-165-43-59 0-114 14-164 43s-90 69-120 120c-29 50-44 105-44 164s15 114 44 164c30 51 70 91 120 120 50 30 105 45 164 45 60 0 114-15 165-45 50-29 90-69 120-120 29-50 44-105 44-164s-15-114-44-164c-30-51-70-90-120-120z" />
<glyph unicode="&#xe00b;" glyph-name="bubble_rating_full" d="M218-59c-67 40-120 93-159 160s-59 140-59 219 20 152 59 219 92 120 159 160c67 39 140 58 219 58s153-19 220-58c67-40 120-93 159-160s59-140 59-219-20-152-59-219-92-120-159-160c-67-39-141-58-220-58s-152 19-219 58v0z" />
<glyph unicode="&#xe00c;" glyph-name="bubble_rating_half" d="M218-59c-67 40-120 93-159 160s-59 140-59 219 20 152 59 219 92 120 159 160c67 39 140 58 219 58s153-19 220-58c67-40 120-93 159-160s59-140 59-219-20-152-59-219-92-120-159-160c-67-39-141-58-220-58s-152 19-219 58v0zM602 36c50 30 90 69 120 120 29 50 44 105 44 164s-15 114-44 164c-30 51-70 91-120 120-51 30-105 45-165 45v-656h1c59 0 113 14 164 43v0z" />
<glyph unicode="&#xe00d;" glyph-name="bubble_rating_empty" d="M218-59c-67 40-120 93-159 160s-59 140-59 219 20 152 59 219 92 120 159 160c67 39 140 58 219 58s153-19 220-58c67-40 120-93 159-160s59-140 59-219-20-152-59-219-92-120-159-160c-67-39-141-58-220-58s-152 19-219 58v0zM602 36c50 30 90 69 120 120 29 50 44 105 44 164s-15 114-44 164c-30 51-70 91-120 120-51 30-105 45-165 45-59 0-114-15-164-45-50-29-90-69-120-120-29-50-44-105-44-164s15-114 44-164c30-51 70-91 120-120s105-43 164-43c60 0 114 14 165 43v0z" />
<glyph unicode="&#xe00e;" glyph-name="pencil_paper" d="M85 533c0 71 58 128 128 128h256v-85h-256c-23 0-42-19-42-43v-512c0-23 19-42 42-42h512c24 0 43 19 43 42v256h85v-256c0-70-57-128-128-128h-512c-70 0-128 57-128 128v512zM791 661c-18 0-36-7-50-21l-3-2 91-91 6 5c12 13 18 29 18 45 0 21-9 41-29 54v0 0c-10 7-21 10-33 10zM769 487l-91 90-215-214-26-117 117 26zM681 701c29 29 70 46 110 46 28 0 56-8 81-25 45-30 67-77 67-124 0-39-15-77-44-106l-298-298-192-43c-3-1-5-1-7-1-3-1-5-1-5-1-28 0-52 23-52 52 0 3 1 7 2 11l42 194z" />
<glyph unicode="&#xe00f;" glyph-name="pencil" d="M144-106c-18 0-35 8-46 22-8 10-13 23-13 36 0 4 1 9 2 13l61 283 438 436c40 41 97 62 152 62 40 0 78-11 110-33 51-35 84-89 90-150 0-7 1-13 1-20 0-54-22-105-60-144l-441-440zM231 203l-46-209 208 47 337 337-162 162zM632 603l162-161 21 21c22 21 34 50 34 80 0 4 0 8-1 11-3 35-21 65-51 85-17 12-38 18-60 18-32 0-64-13-88-37z" />
<glyph unicode="&#xe010;" glyph-name="camera" d="M853-21h-682c-47 0-86 38-86 85v427c0 47 39 85 86 85h131l86 85h248l86-85h131c47 0 86-38 86-85v-427c0-47-39-85-86-85zM171 491v-427h682v427h-167l-85 85h-178l-85-85h-167zM512 128c-94 0-171 77-171 171s77 170 171 170 171-76 171-170-77-171-171-171zM512 384c-47 0-85-38-85-85s38-86 85-86 85 39 85 86-38 85-85 85z" />
<glyph unicode="&#xe011;" glyph-name="heart" d="M512-52c0 0-288 249-362 341-43 53-65 115-65 173 0 61 23 118 69 161 47 45 109 69 175 69s128-24 175-69l7-7 7 7c47 44 109 69 175 69 67 0 129-25 176-69 46-44 70-102 70-161s-23-120-67-174c-75-91-360-340-360-340zM329 607c-44 0-85-16-116-45-30-29-43-64-43-98 0-44 19-88 46-121 56-69 228-222 296-282 67 60 238 213 294 282 28 34 47 77 47 119 0 35-13 70-43 99-31 30-73 46-117 46s-85-16-116-46l-66-62-66 63c-31 29-72 45-116 45z" />
<glyph unicode="&#xe012;" glyph-name="heart_fill" d="M512-52c0 0-288 249-362 341-43 53-65 115-65 173 0 61 23 118 69 161 47 45 109 69 175 69s128-24 175-69l7-7 7 7c47 44 109 69 175 69 67 0 129-25 176-69 46-44 70-102 70-161s-23-120-67-174c-75-91-360-340-360-340z" />
<glyph unicode="&#xe013;" glyph-name="friend" d="M514 367c-105 0-190 85-190 190s85 190 190 190c104 0 189-85 189-190s-85-190-189-190zM514 652c-53 0-95-43-95-95s42-95 95-95c52 0 94 43 94 95s-42 95-94 95zM513 320c155 0 291-76 378-191v-236h-758v234c86 117 224 193 380 193zM796-12v108c-72 82-174 129-283 129-111 0-213-47-285-131v-106h568z" />
<glyph unicode="&#xe014;" glyph-name="explore" d="M512 747l422-282v-572h-844v572zM849-21v439l-337 226-337-226v-439h674z" />
<glyph unicode="&#xe015;" glyph-name="calendar" d="M287 72v270h271v-270h-271zM377 253v-91h91v91h-91zM736 679h180v-786h-808v786h180v23c0 25 20 45 45 45 24 0 44-20 44-45v-23h91v23c0 25 20 45 45 45s45-20 45-45v-23h89v23c0 25 20 45 45 45 24 0 44-20 44-45v-23zM827-17v606h-91v-67h-90v67h-88l-1-67h-89v67h-91v-67h-90v67h-90v-606h630z" />
<glyph unicode="&#xe016;" glyph-name="clock" d="M512 747c236 0 427-191 427-427s-191-427-427-427-427 191-427 427 191 427 427 427zM512-21c189 0 341 152 341 341s-152 341-341 341-341-152-341-341 152-341 341-341zM555 554v-217l136-135-60-61-162 160 1 253h85z" />
<glyph unicode="&#xe017;" glyph-name="globe_americas" d="M512 747c235 0 427-192 427-427s-192-427-427-427-427 192-427 427 192 427 427 427zM512-21c17 0 30 0 43 4-5 0-5 4-5 8v64c0 9 0 13-4 18l-72 72c0 4-5 13-5 17v64c0 9-4 13-8 17l-111 73c-4 4-9 8-9 17v64c0 4-4 13-4 13l-72 72c-5 4-5 13-5 21l13 60c-64-60-102-145-102-243 0-188 153-341 341-341zM742 68c66 57 107 141 107 238v14c0 158-102 286-243 329v-9c0-9 0-13-4-17l-90-90v-42l-43-43-42-43v-42l42-43h43l43-43h115c8 0 13 0 17-4l81-81v-43z" />
<glyph unicode="&#xe018;" glyph-name="globe_world" d="M512 747c235 0 427-192 427-427s-192-427-427-427-427 192-427 427 192 427 427 427zM175 277c13-119 90-222 200-268-38 85-59 174-59 268h-141zM316 363c4 94 25 183 59 268-110-46-187-149-200-268h141zM512-21c43 0 102 119 111 298h-222c9-179 68-298 111-298zM401 363h222c-9 179-68 298-111 298s-102-119-111-298zM849 363c-13 119-90 222-205 268 39-85 60-174 60-268h145zM649 9c110 46 187 149 204 268h-145c-4-94-25-183-59-268z" />
<glyph unicode="&#xe019;" glyph-name="map_pin" d="M512 747c182 0 330-149 330-330 0-194-194-387-298-491l-32-33-32 34c-104 103-298 296-298 490 0 181 148 330 330 330zM512 15c97 98 244 259 244 402 0 135-109 244-244 244s-244-109-244-244c0-144 147-304 244-402zM512 577c82 0 149-67 149-150 0-82-67-149-149-149s-149 67-149 149c0 83 67 150 149 150zM512 363c35 0 64 29 64 64 0 36-29 64-64 64s-64-28-64-64c0-35 29-64 64-64z" />
<glyph unicode="&#xe01a;" glyph-name="map_pin_fill" d="M512 747c182 0 330-149 330-330 0-194-194-387-298-491l-32-33-32 34c-104 103-298 296-298 490 0 181 148 330 330 330zM512 278c82 0 149 67 149 149 0 83-67 150-149 150s-149-67-149-150c0-82 67-149 149-149z" />
<glyph unicode="&#xe01b;" glyph-name="nearby" d="M759 565l-471-153 235-81 82-235zM876 693c1 0 3 0 4-1 2-1 3-2 4-3 1-2 2-3 2-5s0-3-1-5l-267-821c-1-2-2-4-4-5-2-2-4-2-6-2-3 0-5 0-7 2-1 1-3 3-3 5l-142 406-406 140c-2 0-4 2-5 3-2 2-2 5-2 7s0 4 2 6c1 2 3 3 5 4l822 269h4z" />
<glyph unicode="&#xe01c;" glyph-name="special_offer_45deg" d="M866 675l30-303c0-8 0-13-4-17l-431-431c-4-4-10-6-15-6s-11 2-15 6l-333 333c-4 4-6 10-6 15s2 11 6 15l431 431c4 4 13 4 17 4l299-25c13-5 21-13 21-22zM444 31l362 363-21 221-222 22-362-363zM683 551c21 0 42-21 42-42 0-13-4-22-12-30-9-9-18-13-30-13-26 0-43 17-43 43 0 8 4 21 13 30 8 8 17 12 30 12z" />
<glyph unicode="&#xe01d;" glyph-name="special_offer" d="M934 333c5-9 5-17 0-26l-196-234c-4-5-13-9-17-9h-614c-13 0-22 9-22 21v470c0 12 9 21 22 21h614c4 0 13-4 17-9zM691 149l145 171-145 171h-520v-342h520zM649 350c8 8 25 13 34 13 8 0 21-5 25-13 9-9 13-19 13-30s-4-21-13-30c-8-8-21-13-30-13-8 0-21 5-29 13-9 9-13 19-13 30s4 21 13 30z" />
<glyph unicode="&#xe01e;" glyph-name="laptop" d="M917 64c13 0 22-9 22-21v-43c0-13-9-21-22-21h-810c-13 0-22 8-22 21v43c0 12 9 21 22 21h810zM192 107c-13 0-21 8-21 21v512c0 13 8 21 21 21h640c13 0 21-8 21-21v-512c0-13-8-21-21-21h-640zM256 576v-384h512v384h-512z" />
<glyph unicode="&#xe01f;" glyph-name="mobile_phone" d="M747 704c12 0 21-9 21-21v-726c0-12-9-21-21-21h-470c-12 0-21 9-21 21v726c0 12 9 21 21 21h470zM683 64v512h-342v-512h342z" />
<glyph unicode="&#xe020;" glyph-name="neighborhoods" d="M661 457l278-185v-379h-854v618h86v150h106v43c0 24 19 43 43 43 23 0 43-19 43-43v-43h107v-150h85v-125zM661 354l-192-127v-248h65v191h254v-191h65v248zM619 85v-106h84v106h-84zM256 576v-65h128v65h-128zM470 426h-299v-447h213v293l86 57v97zM213 285v86h86v-86h-86zM213 137v85h86v-85h-86z" />
<glyph unicode="&#xe021;" glyph-name="neighborhoods_fill" d="M661 457l278-185v-379h-854v618h86v150h106v43c0 24 19 43 43 43 23 0 43-19 43-43v-43h107v-150h85v-125zM299 137v85h-86v-85h86zM299 285v86h-86v-86h86zM788-21v192h-254v-192h85v106h84v-106h85z" />
<glyph unicode="&#xe022;" glyph-name="email" d="M85 640h854v-640h-854v640zM850 555h-676l337-237zM853 85v368l-342-239-340 239v-368h682z" />
<glyph unicode="&#xe023;" glyph-name="star" d="M512 568l-64-198h-209l169-123-65-197 169 122 169-122-65 197 169 123h-208zM514 727c15 0 30-9 37-26v-1l82-253h265c22 0 35-15 39-29 1-3 2-7 2-12 0-11-5-24-17-33l-214-155 81-251c2-5 3-9 3-14 0-13-7-26-18-33-7-5-15-7-23-7-9 0-17 2-24 7v1l-215 155-214-155v-1c-8-5-16-7-24-7-9 0-18 3-25 8-9 7-16 19-16 33 0 3 0 7 1 11h1l82 253-215 155c-11 9-17 21-17 34 0 4 1 9 3 13 5 15 20 27 38 27h266l81 252c7 20 25 28 39 28h2z" />
<glyph unicode="&#xe024;" glyph-name="star_fill" d="M514 727c15 0 30-9 37-26v-1l82-253h265c22 0 35-15 39-29 1-3 2-7 2-12 0-11-4-24-17-33l-214-155 81-251c2-5 3-9 3-14 0-13-7-26-18-33-7-5-15-7-23-7-9 0-17 2-24 7v1l-215 155-214-155v-1c-8-5-16-7-24-7-9 0-18 3-25 8-9 7-16 19-16 33 0 3 0 7 1 11l1 1 82 252-215 156c-11 8-17 20-17 33 0 4 1 9 3 13 5 15 20 27 38 27h266l81 252c7 20 25 28 39 28h2z" />
<glyph unicode="&#xe025;" glyph-name="flag" d="M192 747c24 0 43-19 43-43v-43h639v-469h-639v-299h-85v811c0 24 19 43 42 43zM235 277h554v299h-554v-299z" />
<glyph unicode="&#xe026;" glyph-name="phone" d="M749-106c-70 0-260 19-452 210-196 197-212 394-212 458 0 12 1 20 1 21l2 21 192 142 232-233-77-116c32-69 88-125 157-156l135 58 212-211-143-190-20-3c-9-1-18-1-27-1zM181 554c0-55 17-216 184-384 166-168 326-182 381-182l68 89-108 108-108-46-17 6c-112 42-200 130-243 242l-7 22 60 92-120 120z" />
<glyph unicode="&#xe027;" glyph-name="printer" d="M917 491c13 0 22-9 22-22v-341c0-13-9-21-22-21h-128c-12 0-21-9-21-22v-128c0-12-9-21-21-21h-470c-12 0-21 9-21 21v128c0 13-9 22-21 22h-128c-13 0-22 8-22 21v341c0 13 9 22 22 22h810zM683 21v214h-342v-214h342zM277 533c-12 0-21 9-21 22v128c0 12 9 21 21 21h470c12 0 21-9 21-21v-128c0-13-9-22-21-22h-470z" />
<glyph unicode="&#xe028;" glyph-name="lightbulb_on" d="M469 661v86h86v-86h-86zM247 525l-64 64 60 60 64-64zM717 585l64 64 60-60-64-64zM316 525c42 52 107 94 196 94s154-42 196-94c41-51 60-114 60-162 0-62-22-111-47-149-12-19-26-36-38-51-1-2-3-4-5-7-10-12-18-22-24-31-15-22-22-39-26-50-1-5-2-9-2-11v-43h-228v43c0 2-1 6-2 11-4 11-11 28-26 50-6 9-14 19-24 31-2 3-4 5-5 7-12 15-26 32-38 51-25 38-47 87-47 149 0 48 19 111 60 162zM383 472c-29-37-42-81-42-109 0-41 14-73 33-103 10-15 21-29 33-43 1-2 3-4 5-6 9-12 20-25 28-37 18-26 29-49 35-67h74c6 18 17 41 35 67 8 12 18 25 28 37 2 2 4 4 5 6 12 14 23 28 33 43 19 30 33 62 33 103 0 28-13 72-42 109-27 35-69 61-129 61s-102-26-129-61zM213 277h-85v86h85v-86zM811 363h85v-86h-85v86zM640-107h-256v86h256v-86z" />
<glyph unicode="&#xe029;" glyph-name="external_link" d="M853 277h90v-358c0-17-13-26-26-26h-806c-17 0-26 9-26 22v806c0 17 9 26 26 26h358v-86h-298v-682h682v298zM875 704c8 0 21-9 21-21v-201c0-14-12-23-23-23-6 0-11 2-15 6l-73 73-256-256-60 59 256 256-68 69c-4 4-5 10-5 15 0 12 10 23 22 23h201z" />
<glyph unicode="&#xe02a;" glyph-name="checkmark_boxed" d="M829-6h9v421l92 92v-584c0-17-12-25-25-25h-794c-17 0-26 12-26 25v794c0 13 9 25 21 25h585l-93-96h-420v-652h651zM312 507l152-151 386 386 89-88-475-475-240 240z" />
<glyph unicode="&#xe02b;" glyph-name="checkmark" d="M404 48l-253 253 76 76 177-177 393 392 76-76z" />
<glyph unicode="&#xe02c;" glyph-name="times" d="M781-9l-269 269-269-269-60 60 269 269-269 269 60 60 269-269 269 269 60-60-269-269 269-269z" />
<glyph unicode="&#xe02d;" glyph-name="times_c" d="M210 622c84 83 193 125 302 125s218-42 302-125c83-84 125-193 125-302s-42-218-125-302c-84-83-193-125-302-125s-218 42-302 125c-83 84-125 193-125 302s42 218 125 302zM753 79c67 66 100 154 100 241s-33 175-100 241c-66 67-154 100-241 100s-175-33-241-100c-67-66-100-154-100-241s33-175 100-241c66-67 154-100 241-100s175 33 241 100zM401 491l106-106 106 106 60-60-106-106 106-106-60-60-106 106-106-106-60 60 106 106-106 106z" />
<glyph unicode="&#xe02e;" glyph-name="times_c_fill" d="M210 622c84 83 193 125 302 125s218-42 302-125c83-84 125-193 125-302s-42-218-125-302c-84-83-193-125-302-125s-218 42-302 125c-83 84-125 193-125 302s42 218 125 302zM673 431l-60 60-106-106-106 106-60-60 106-106-106-106 60-60 106 106 106-106 60 60-106 106z" />
<glyph unicode="&#xe02f;" glyph-name="plus" d="M559-107h-94v380h-380v94h380v380h94v-380h380v-94h-380v-380z" />
<glyph unicode="&#xe030;" glyph-name="plus_c" d="M512 747c236 0 427-191 427-427s-191-427-427-427-427 191-427 427 191 427 427 427zM512-21c188 0 341 153 341 341s-153 341-341 341-341-153-341-341 153-341 341-341zM555 519v-149h149v-86h-149v-149h-86v149h-149v86h149v149h86z" />
<glyph unicode="&#xe031;" glyph-name="plus_c_fill" d="M512 747c236 0 427-191 427-427s-191-427-427-427-427 191-427 427 191 427 427 427zM704 284v86h-149v149h-86v-149h-149v-86h149v-149h86v149h149z" />
<glyph unicode="&#xe032;" glyph-name="minus" d="M939 363v-86h-854v86h854z" />
<glyph unicode="&#xe033;" glyph-name="minus_c" d="M512 747c236 0 427-191 427-427s-191-427-427-427-427 191-427 427 191 427 427 427zM512-21c188 0 341 153 341 341s-153 341-341 341-341-153-341-341 153-341 341-341zM320 370h384v-86h-384v86z" />
<glyph unicode="&#xe034;" glyph-name="minus_c_fill" d="M512 747c236 0 427-191 427-427s-191-427-427-427-427 191-427 427 191 427 427 427zM704 284v86h-384v-86h384z" />
<glyph unicode="&#xe035;" glyph-name="menu_bars" d="M87 533v107h852v-107h-852zM85 267v106h852v-106h-852zM86 1v106h852v-106h-852z" />
<glyph unicode="&#xe036;" glyph-name="refresh" d="M512 747c235 0 427-192 427-427s-192-427-427-427v98c183 0 333 150 333 333 0 184-150 333-333 333s-333-149-333-333c0-115 60-213 145-273l64 64c5 4 10 5 15 5 13 0 24-10 24-22v-183c0-13-9-22-22-22h-183c-12 0-22 11-22 22 0 5 1 9 5 12l51 52c-102 76-171 200-171 341 0 235 192 427 427 427z" />
<glyph unicode="&#xe038;" glyph-name="single_chevron_up" d="M785 124l-273 273-273-273-60 64 333 328 333-328z" />
<glyph unicode="&#xe039;" glyph-name="single_chevron_up_c" d="M512 747c235 0 427-192 427-427s-192-427-427-427-427 192-427 427 192 427 427 427zM512-21c188 0 341 153 341 341s-153 341-341 341-341-153-341-341 153-341 341-341zM512 474l60-64 123-120-59-60-124 120-119-120-60 60z" />
<glyph unicode="&#xe03a;" glyph-name="single_chevron_up_c_fill" d="M512 747c235 0 427-192 427-427s-192-427-427-427-427 192-427 427 192 427 427 427zM636 230l55 64-119 120-60 60-179-184 60-60 119 120z" />
<glyph unicode="&#xe03b;" glyph-name="single_chevron_right" d="M316 593l59 60 333-333-333-329-59 60 273 269z" />
<glyph unicode="&#xe03c;" glyph-name="single_chevron_right_c" d="M512 747c235 0 427-192 427-427s-192-427-427-427-427 192-427 427 192 427 427 427zM512-21c188 0 341 153 341 341s-153 341-341 341-341-153-341-341 153-341 341-341zM486 503l120-119 60-64-60-60-120-119-59 60 119 119-119 124z" />
<glyph unicode="&#xe03d;" glyph-name="single_chevron_right_c_fill" d="M512 747c235 0 427-192 427-427s-192-427-427-427-427 192-427 427 192 427 427 427zM606 260l60 64-60 60-120 119-59-59 119-124-119-119 59-60z" />
<glyph unicode="&#xe03e;" glyph-name="single_chevron_down" d="M785 516l60-59-333-333-333 333 60 59 273-269z" />
<glyph unicode="&#xe03f;" glyph-name="single_chevron_down_c" d="M512 747c235 0 427-192 427-427s-192-427-427-427-427 192-427 427 192 427 427 427zM512-21c188 0 341 153 341 341s-153 341-341 341-341-153-341-341 153-341 341-341zM512 294l119 120 60-60-179-179-60 60-123 119 64 60z" />
<glyph unicode="&#xe040;" glyph-name="single_chevron_down_c_fill" d="M512 747c235 0 427-192 427-427s-192-427-427-427-427 192-427 427 192 427 427 427zM572 235l119 119-60 60-119-120-119 120-60-60 179-179z" />
<glyph unicode="&#xe041;" glyph-name="single_chevron_left" d="M708 593l-273-273 273-269-59-60-333 329 333 333z" />
<glyph unicode="&#xe042;" glyph-name="single_chevron_left_c" d="M512 747c235 0 427-192 427-427s-192-427-427-427-427 192-427 427 192 427 427 427zM512-21c188 0 341 153 341 341s-153 341-341 341-341-153-341-341 153-341 341-341zM550 503l60-59-119-120 119-123-60-60-123 119-60 64 60 60z" />
<glyph unicode="&#xe043;" glyph-name="single_chevron_left_c_fill" d="M512 747c235 0 427-192 427-427s-192-427-427-427-427 192-427 427 192 427 427 427zM550 141l60 60-124 119 120 119-60 60-179-179 60-60z" />
<glyph unicode="&#xe044;" glyph-name="caret_up" d="M201 201l290 281c6 7 14 10 21 10s15-3 21-10l290-281c7-7 10-14 10-22 0-7-3-15-10-21-4-4-12-9-21-9h-580c-17 0-30 13-30 30 0 9 4 17 9 22z" />
<glyph unicode="&#xe047;" glyph-name="caret_right" d="M393 631l281-290c7-6 10-14 10-21s-3-15-10-21l-281-290c-7-7-14-10-22-10-7 0-15 3-21 10-4 4-9 12-9 21v580c0 17 13 30 30 30 9 0 17-4 22-9z" />
<glyph unicode="&#xe04a;" glyph-name="caret_down" d="M824 441l-290-282c-6-6-14-10-21-10s-15 4-21 10l-290 282c-7 6-10 13-10 21 0 7 3 15 10 21 4 5 12 9 21 9h580c17 0 30-13 30-30 0-9-4-17-9-21z" />
<glyph unicode="&#xe04d;" glyph-name="caret_left" d="M632 8l-281 290c-7 6-10 14-10 21s3 15 10 21l281 290c7 7 14 10 22 10 7 0 15-3 21-10 4-4 9-12 9-21v-580c0-17-13-30-30-30-9 0-17 4-22 9z" />
<glyph unicode="&#xe050;" glyph-name="exclamation_c" d="M512 747c236 0 427-191 427-427s-191-427-427-427-427 191-427 427 191 427 427 427zM512-21c189 0 341 152 341 341s-152 341-341 341-341-152-341-341 152-341 341-341zM459 160c0 29 24 53 53 53s53-24 53-53-24-53-53-53-53 24-53 53zM469 256v299h86v-299h-86z" />
<glyph unicode="&#xe052;" glyph-name="information_c" d="M512 747c236 0 427-191 427-427s-191-427-427-427-427 191-427 427 191 427 427 427zM512-21c189 0 341 152 341 341s-152 341-341 341-341-152-341-341 152-341 341-341zM469 107v298h86v-298h-86zM459 501c0 30 24 54 53 54s53-24 53-54c0-29-24-53-53-53s-53 24-53 53z" />
<glyph unicode="&#xe053;" glyph-name="information_c_fill" d="M512 747c236 0 427-191 427-427s-191-427-427-427-427 191-427 427 191 427 427 427zM555 107v298h-86v-298h86zM512 448c29 0 53 24 53 53 0 30-24 54-53 54s-53-24-53-54c0-29 24-53 53-53z" />
<glyph unicode="&#xe054;" glyph-name="question_c" d="M512 747c236 0 427-191 427-427s-191-427-427-427-427 191-427 427 191 427 427 427zM512-21c189 0 341 152 341 341s-152 341-341 341-341-152-341-341 152-341 341-341zM512 555c81 0 149-56 149-128 0-49-25-81-49-102-12-10-23-18-32-23l-1-1c-10-7-14-10-16-11-1-2-4-8-6-18-1-5-2-16-2-16v-21h-86s1 28 1 31c0 6 1 14 3 22 3 16 10 42 30 62 9 9 20 16 28 21l1 1c9 6 17 12 24 18 14 11 20 22 20 37 0 13-17 42-64 42s-64-29-64-42v-22h-85v22c0 72 68 128 149 128zM459 139c0 29 24 53 53 53s53-24 53-53c0-30-24-54-53-54s-53 24-53 54z" />
<glyph unicode="&#xe056;" glyph-name="search" d="M939-43l-63-63-235 235c-59-45-132-72-211-72-190 0-345 154-345 344 0 191 155 345 345 345s345-154 345-345c0-78-27-151-72-209zM430 146c141 0 256 114 256 255s-115 256-256 256-256-115-256-256 115-255 256-255z" />
<glyph unicode="&#xe057;" glyph-name="thumbs_up_fill" d="M129 407c24 0 44-20 44-44v-415h-88v415c0 24 20 44 44 44zM917 443c14-16 22-36 22-57 0-4-1-8-1-12l-54-352c-7-43-43-74-87-74h-537v430l244 314h101c26 0 51-12 67-32 13-16 20-35 20-55 0-6 0-12-2-18l-23-114h184c25 0 49-11 66-30z" />
<glyph unicode="&#xe058;" glyph-name="thumbs_down_fill" d="M173 277c0-24-20-44-44-44s-44 20-44 44v415h88v-415zM938 266c0-4 1-8 1-12 0-21-8-41-22-57-16-19-40-30-66-30h-184l24-114c1-6 1-12 1-18 0-20-7-39-20-55-16-20-41-32-67-32h-101l-244 314v430h538c43 0 80-31 86-74z" />
<glyph unicode="&#xe059;" glyph-name="certificate_of_excellence" d="M189 747h646v-854l-323 160-323-160v854zM743 42v612h-462v-612l232 113zM445 365l-87 63c-7 5-4 15 5 15h108l33 102c2 4 5 6 8 6 4 0 7-2 8-6l34-102h108c8 0 11-10 5-15l-88-63 34-103c2-5-3-10-8-10-2 0-4 0-5 1l-88 63-87-63c-2-1-4-1-5-1-5 0-10 5-8 10z" />
<glyph unicode="&#xe05a;" glyph-name="green_leaders" d="M844-20c7-5 10-11 10-17 0-5-2-9-6-13l-34-34c-4-5-9-7-15-7-5 0-10 2-15 7l-77 76h-264c-154 5-273 128-273 278v435c0 13 8 26 25 26h384c154-5 274-128 274-278v-294c0-9-5-13-9-17-6-4-13-7-19-7s-11 3-15 7l-269 273-64-64 337-341z" />
<glyph unicode="&#xe05b;" glyph-name="amusement_parks" d="M795 125c-15-20-32-39-50-56l117-176h-700l117 176c-18 17-35 36-50 56-13-8-29-13-45-13-49 0-88 39-88 88 0 41 30 76 69 85-2 15-3 30-3 46s1 31 3 46c-39 8-69 43-69 85 0 49 39 88 88 88 16 0 32-5 45-13 21 29 47 55 77 77-8 13-13 29-13 45 0 48 39 88 88 88 42 0 77-30 85-69 15 2 30 3 46 3s31-1 46-3c8 39 44 69 85 69 49 0 88-39 88-88 0-16-5-32-13-45 30-22 55-47 77-77 13 8 29 13 45 13 49 0 88-39 88-88 0-42-30-77-69-85 2-15 3-30 3-46s-1-31-3-46c39-8 69-44 69-85 0-49-39-88-88-88-16 0-32 5-45 13zM326-21h373l-187 279zM696 143c48 48 79 114 79 188 0 145-118 262-263 262s-263-117-263-262c0-74 31-140 79-188l184 275z" />
<glyph unicode="&#xe05c;" glyph-name="wifi" d="M329 224c51 51 117 76 183 76s132-25 183-76l-61-61c-34 34-78 50-122 50s-88-16-122-50zM207 346c84 84 195 126 305 126s221-42 305-126l-61-61c-68 67-156 101-244 101s-177-34-244-101zM85 468c118 118 273 176 427 176s309-58 427-176l-61-62c-101 100-234 151-366 151s-265-51-366-151zM446 61c0 37 30 66 66 66s66-29 66-66c0-36-30-65-66-65s-66 29-66 65z" />
<glyph unicode="&#xe05d;" glyph-name="parking" d="M356 532h163c86 0 148-47 148-136s-62-136-148-136h-72v-155h-91v427zM515 339c40 0 62 20 62 57s-22 57-62 57h-68v-114h68zM796-107h-568c-79 0-143 64-143 143v568c0 79 64 143 143 143h568c79 0 143-64 143-143v-568c0-79-64-143-143-143zM228 652c-26 0-48-22-48-48v-568c0-27 22-48 48-48h568c26 0 48 21 48 48v568c0 26-22 48-48 48h-568z" />
<glyph unicode="&#xe05e;" glyph-name="coffee_tea_cafe" d="M557-39h-270c-115 0-202 87-202 202v516h764c47 0 90-42 90-90v-224c0-47-43-90-90-90h-90v-112c0-115-87-202-202-202zM175 589v-426c0-65 47-112 112-112h270c65 0 112 47 112 112v426h-494zM759 365h90v224h-90v-224z" />
<glyph unicode="&#xe05f;" glyph-name="notification_bell" d="M512 747c23 0 42-19 42-42v-44c76-9 139-43 185-95 55-61 83-144 85-235v-230h63v-83h-214c-3-12-8-25-14-39-11-21-27-43-52-59-25-17-57-27-95-27s-70 10-95 27c-25 16-41 38-51 59-7 14-12 27-15 39h-214v83h63v230c0 91 29 175 83 235 47 52 111 86 187 95v44c0 23 19 42 42 42zM283 101h458c0 72 0 197-1 229-1 75-24 138-63 181-38 43-93 69-165 69s-128-27-167-69c-37-42-61-103-61-176v-4s-1-158-1-230zM439 18c0-1 1-1 1-2 5-11 13-20 23-27s25-12 49-12 39 5 49 12 18 16 23 27c0 1 1 1 1 2h-146z" />
<glyph unicode="&#xe061;" glyph-name="arrow_left_prohibited" d="M273 218c-3-2-8-3-12-3-6 0-13 2-18 7l-128 128c-4 4-6 9-6 15 0 5 2 10 6 15l128 128s9 4 13 4c13 0 21-9 21-21v-90h214l-86-85h-128v-81c0-5 0-13-4-17zM917 401v-85h-303l-328-329-60 60 606 606 60-60-192-192h217z" />
<glyph unicode="&#xe062;" glyph-name="empty_cart" d="M732 169c72 0 130-58 130-129 0-72-58-130-130-130-71 0-129 58-129 130 0 15 3 29 7 43h-101c5-14 8-28 8-43 0-72-58-130-130-130-71 0-129 58-129 130 0 25 7 49 20 69-39 31-63 85-63 125v388c0 2-7 22-22 22h-108v86h108c70 0 108-64 108-108h638l-87-345h-551v-43c0-26 31-65 43-65h388zM301 536v-173h484l43 173h-527zM387-4c24 0 43 20 43 44 0 23-19 43-43 43-23 0-43-20-43-43 0-24 20-44 43-44zM732-4c24 0 44 20 44 44 0 23-20 43-44 43-23 0-43-20-43-43 0-24 20-44 43-44z" />
<glyph unicode="&#xe063;" glyph-name="activities" d="M609 636c0 40 32 72 72 72s73-32 73-72-33-73-73-73-72 33-72 73zM925 354c9-3 14-11 14-20 0-3-1-7-2-10l-21-38c-5-8-13-13-21-13-4 0-9 1-13 4l-107 60-21 26v-73s4-4 4-8l149-295c2-3 2-6 2-9 0-9-5-17-14-21l-43-21c-3-3-7-4-11-4-8 0-16 4-19 13l-124 247h-4l-34-136c-4-5-4-9-8-13l-111-103c-7-4-13-6-19-6s-11 2-16 6l-34 34c-4 7-6 13-6 19s2 11 6 16l103 98c0 4 4 8 4 13l30 128v145l-38-39c-5-4-9-13-9-17v-89c-4-13-13-22-26-22h-47c-17 0-25 9-25 22v128c0 4 4 12 8 17l128 102c20 17 45 26 71 26s53-9 74-26c5 0 9-4 9-4l72-86c5 0 5-4 9-4zM174 597c0 24 19 43 42 43 24 0 43-19 43-43 0-23-19-42-43-42-23 0-42 19-42 42zM319 465l55-30c4-4 9-13 9-34l-13-25c-4-5-13-9-21-5l-69 39-13 17v-51l94-184c0-4 0-13-8-17l-26-13c-8 0-17 0-21 9l-77 153-21-85c0-4-5-8-5-8l-72-64c-9-5-17-5-21 0l-22 21c-4 8-4 17 0 21l60 60c4 4 4 4 4 8l22 81v94l-26-21c-4 0-4-4-4-9v-55c0-9-5-13-13-13h-30c-4 0-13 4-13 13v81c0 4 0 4 5 9l76 64c5 4 9 4 13 4h73c4 0 8-4 12-4l47-52c0-4 5-4 5-4z" />
<glyph unicode="&#xe064;" glyph-name="pool" d="M597 617c0 59 48 107 107 107s107-48 107-107-48-106-107-106-107 47-107 106zM252 617c-22 0-39 22-39 43v21c0 26 22 43 43 43h4c73 0 141-30 192-85l278-273c-5-5-13-9-17-9-13-9-30-17-52-17-17 0-34 4-51 17-26 15-52 26-80 26h-14c-34 0-68-9-94-26-12-9-29-17-51-17-17 0-34 4-51 17-9 4-21 13-34 17l111 107c8 8 13 19 13 30 0 10-5 21-13 29l-13 13c-34 39-81 60-132 64zM516 84c66 0 125-64 186-64h6c70 4 109 64 181 64h7v-107c-68-8-102-51-166-59-7-1-13-2-20-2-73 0-128 61-192 61h-6c-55 0-107-51-166-59-8-1-15-2-22-2-78 0-133 61-196 61v107c70 0 121-64 190-64h6c69 0 120 64 192 64zM708 233c70 4 109 64 181 64h7v-106c-68-9-102-52-166-60-7-1-13-2-20-2-73 0-128 62-192 62h-6c-55 0-107-52-166-60-8-1-15-2-22-2-78 0-133 62-196 62v106c70 0 121-64 190-64h6c69 0 120 64 192 64 67 0 125-64 186-64h6z" />
<glyph unicode="&#xe065;" glyph-name="pet_friendly" d="M384 535c-47 0-85 39-85 86s38 85 85 85 85-38 85-85-38-86-85-86zM256 450c0-47-38-85-85-85s-86 38-86 85 39 85 86 85 85-38 85-85zM512 365c-78 0-138-28-183-73-23-23-47-56-62-92-10-25-16-49-16-72 0-11 1-21 4-30 8-35 24-55 42-66 13-8 28-13 48-13 10 0 20 1 30 4 10 2 21 7 38 14 5 2 10 5 15 7 22 10 53 22 84 22s62-12 83-22c6-3 11-5 16-7 17-7 28-12 38-14 10-3 21-4 30-4 20 0 35 5 48 13 18 11 34 31 42 66 3 9 4 19 4 30 0 23-6 47-16 72-15 36-39 69-62 92-45 45-105 73-183 73zM269 352c61 61 142 98 243 98s182-36 243-98c31-30 61-72 80-119 14-32 23-68 23-106 0-16-2-33-6-50-13-51-39-93-80-118-28-17-60-25-93-25-16 0-32 2-48 5-20 4-42 14-60 22-3 2-7 3-10 5-22 10-38 15-49 15s-27-5-49-15c-3-2-7-3-10-5v0 0c-18-8-40-18-60-22-16-3-32-5-47-5-34 0-66 8-94 25-40 25-67 67-80 118-4 17-6 34-6 50 0 38 9 74 23 106 19 47 49 89 80 119zM939 450c0-47-39-85-86-85s-85 38-85 85 38 85 85 85 86-38 86-85zM640 535c-47 0-85 39-85 86s38 85 85 85 85-38 85-85-38-86-85-86z" />
<glyph unicode="&#xe066;" glyph-name="smoking" d="M851 226v128h85v-128h-85zM85 333c0 12 9 21 22 21h659v-128h-659c-13 0-22 9-22 21v86zM745 694c0 0-6-15-6-35 0-21 6-48 27-71 34-40 41-88 41-118 0-19-3-31-3-31h-64s6 22 6 46c0 6 0 12-1 18-4 25-43 64-51 85-12 26-15 56-15 77 0 17 2 29 2 29h64zM898 588c34-40 41-87 41-118 0-19-3-31-3-31h-64s2 17 2 36c0 9 0 19-2 28-4 25-42 64-51 85-12 26-14 56-14 77 0 17 2 29 2 29h63s-4-13-4-33c0-21 5-49 30-73z" />
<glyph unicode="&#xe067;" glyph-name="smoking_prohibited" d="M851 226v128h85v-128h-85zM745 694c-4-12-6-23-6-35 0-25 9-49 27-67 27-30 41-72 41-116 0-11-1-22-3-33h-64c3 15 6 28 6 42 0 6 0 12-1 18-5 25-43 64-51 85-10 25-15 51-15 78 0 9 1 19 2 28h64zM872 439c2 11 3 21 3 32s-1 21-3 32c-4 25-42 64-51 85-9 26-14 51-14 78 0 9 0 19 1 28h69c-4-12-6-23-6-35 0-26 9-50 27-71 27-31 41-72 41-116 0-11-1-22-3-33h-64zM85 550l60 59 604-604-60-59-280 280h-302c-13 0-22 9-22 22v85c0 12 9 21 22 21h174zM647 226l-128 128h247v-128h-119z" />
<glyph unicode="&#xe068;" glyph-name="bar" d="M939 619l-384-384v-214h168v-85h-427v85h173v218l-384 384v81h854v-85zM816 619h-606l302-304 114 114h-8c-17 0-33 7-45 19-11 12-18 28-18 44 0 36 29 64 64 64h9c32-5 55-32 55-63v-9z" />
<glyph unicode="&#xe069;" glyph-name="sun" d="M299 316c0 118 95 213 213 213s213-95 213-213-95-214-213-214-213 96-213 214zM256 516l-60 60c-4 4-6 10-6 15s2 11 6 15l30 30c4 4 10 6 15 6s11-2 15-6l60-60c4-4 6-10 6-15s-2-11-6-15l-30-30c-4-4-10-6-15-6s-11 2-15 6zM772 119l60-59c4-5 6-10 6-15 0-6-2-11-6-15l-30-30c-4-4-9-6-15-6-5 0-10 2-15 6l-59 60c-5 4-7 9-7 15 0 5 2 10 7 15l29 29c5 5 10 7 15 7 6 0 11-2 15-7zM742 512l-29 30c-5 4-7 9-7 15 0 5 2 10 7 15l59 59c5 5 10 7 15 7 6 0 11-2 15-7l30-29c4-5 6-10 6-15 0-6-2-11-6-15l-60-60c-4-4-9-6-15-6-5 0-10 2-15 6zM286 119l30-29c4-5 6-10 6-15 0-6-2-11-6-15l-60-60c-4-4-10-6-15-6s-11 2-15 6l-30 30c-4 4-6 9-6 15 0 5 2 10 6 15l60 59c4 5 10 7 15 7s11-2 15-7zM213 299c0-13-8-22-21-22h-85c-13 0-22 9-22 22v42c0 13 9 22 22 22h85c13 0 21-9 21-22v-42zM917 363c13 0 22-9 22-22v-42c0-13-9-22-22-22h-85c-13 0-21 9-21 22v42c0 13 8 22 21 22h85zM533 21c13 0 22-8 22-21v-85c0-13-9-22-22-22h-42c-13 0-22 9-22 22v85c0 13 9 21 22 21h42zM491 619c-13 0-22 8-22 21v85c0 13 9 22 22 22h42c13 0 22-9 22-22v-85c0-13-9-21-22-21h-42z" />
<glyph unicode="&#xe06a;" glyph-name="guides_fill" d="M917 678c13-5 22-13 22-26v-632c0-12-13-25-26-25h-8c-41 9-83 14-124 14-89 0-178-22-256-65-9-5-17-5-26 0-78 43-166 67-255 67-42 0-84-5-125-16h-8c-13 0-26 13-26 25v632c0 13 9 26 22 30 42 8 89 17 140 17 9 0 17 1 26 1 77 0 157-18 222-57 8-4 17-4 26 0 72 39 149 57 229 57 9 0 18-1 27-1 51 0 98-9 140-21z" />
<glyph unicode="&#xe06b;" glyph-name="comments" d="M817 628h-614v-427h290v-141c60 47 170 141 170 141h154v427zM151 704h717c13 0 26-12 30-25v-529c0-13-13-26-25-26h-154c-4 0-9 0-13-4-43-26-247-179-247-179-5-5-9-5-13-5h-7c-13 0-23 11-23 22v141c0 12-13 25-26 25h-239c-12 0-25 13-25 26v529c0 13 13 25 25 25z" />
<glyph unicode="&#xe06c;" glyph-name="comments_fill" d="M151 704h717c13 0 26-12 30-25v-529c0-13-13-26-25-26h-154c-4 0-9 0-13-4-43-26-247-179-247-179-5-5-9-5-13-5h-7c-13 0-23 11-23 22v141c0 12-13 25-26 25h-239c-12 0-25 13-25 26v529c0 13 13 25 25 25z" />
<glyph unicode="&#xe06d;" glyph-name="email_fill" d="M85 640h854v-640h-854v640zM853 453v102h-3l-339-235-337 235h-3v-102l341-239z" />
<glyph unicode="&#xe06e;" glyph-name="adult" d="M422 659c0 47 41 86 90 86s90-39 90-86-41-85-90-85-90 38-90 85zM725 284c1-3 1-5 1-7 0-10-6-20-13-23l-43-13c-9 0-17 0-21 9-5 0-39 128-39 128l-4-188 21-269c0-8-4-21-17-21l-47-5c-13 0-25 9-25 22l-22 239h-4s-21-243-26-248c-4-8-12-13-21-13l-47 5c-8 0-17 8-17 21l21 273c0 13-4 196-4 196l-34-128c0-10-9-18-19-18-2 0-4 1-7 1l-42 13c-11 4-18 10-18 19 0 2 0 4 1 7 0 0 55 183 59 192 5 4 5 8 9 8 8 9 17 13 30 17 34 22 77 30 119 30 43 0 86-8 115-30 13-4 22-8 30-17 5 0 9-4 9-8 4-5 55-192 55-192z" />
<glyph unicode="&#xe06f;" glyph-name="child" d="M512 469c-60 0-107 47-107 107 5 60 52 107 111 107 60 0 107-47 107-107-4-60-51-107-111-107zM738 247c3-3 5-7 5-11 0-6-4-13-9-18l-30-30c-4-5-10-7-15-7s-11 2-15 7l-47 47 30-150h-43v-106c0-13-8-22-21-22h-43c-12 0-21 9-21 22v106h-43v-106c0-13-8-22-21-22h-43c-12 0-21 9-21 22v102h-43l39 154-51-47c-5-5-10-7-15-7-6 0-11 2-15 7l-30 30c-4 4-7 9-7 15 0 5 3 10 7 14 0 0 115 133 119 133 5 8 13 17 22 21 27 20 58 30 89 30 43 0 84-19 111-56z" />
<glyph unicode="&#xe070;" glyph-name="present" d="M176-88v240h288v-240h-288zM819 536h77v-96h-48v-192h-288v192h-96v-192h-288v192h-48v96h77c-5 10-5 14-5 24 0 91 77 168 168 168 62 0 115-34 144-82 29 48 82 82 144 82 91 0 168-77 168-168 0-10-5-14-5-24zM435 536c5 10 5 14 5 24 0 38-34 72-72 72s-72-34-72-72c0-10 0-19 5-24h134zM723 536c5 10 5 14 5 24 0 38-34 72-72 72s-72-34-72-72c0-10 0-14 5-24h134zM560-88v240h288v-240h-288z" />
<glyph unicode="&#xe071;" glyph-name="announcement_fill_26deg" d="M128 213l38 17c3 1 5 1 8 1 8 0 16-4 22-10l77-154c1-2 2-4 2-7 0-8-4-16-10-22l-39-17c-2-2-5-2-7-2-8 0-16 4-23 10l-76 154c-3 4-5 9-5 13 0 7 5 14 13 17zM230 251c-4 8-4 17 5 21l426 389c0 4 5 4 5 4 3 2 7 3 11 3 8 0 15-6 18-12l214-448v-4c0-13-4-21-17-26l-115-21c-9 0-17-8-17-17-9-77-69-145-146-162-16-4-33-6-50-6-68 0-133 34-167 95-4 9-13 13-21 13l-43-8c-9 0-17 4-21 13zM597 72c35 4 60 34 69 72l-175-34c20-27 52-41 83-41 8 0 16 1 23 3z" />
<glyph unicode="&#xe072;" glyph-name="announcement_fill" d="M169 450h42c13 0 22-8 22-21v-171c0-13-9-21-22-21h-42c-13 0-22 8-22 21v171c0 13 9 21 22 21zM275 437c0 9 4 17 17 22l555 162h4c13 0 22-13 26-22v-494c-4-11-10-19-19-19-2 0-5 1-7 1l-115 30c-13 5-21 0-26-8-35-57-100-90-164-90-14 0-27 2-40 4-86 18-145 90-154 175-4 13-9 17-17 22l-43 13c-13 4-17 12-17 21v183zM527 117c7-1 14-2 22-2 27 0 55 12 72 32l-171 47c9-38 39-72 77-77z" />
<glyph unicode="&#xe073;" glyph-name="trash" d="M345 663c0 46 38 84 84 84h166c46 0 83-38 83-84v-41h188v-83h-59v-521c0-33-13-65-37-88-23-23-55-37-88-37h-340c-33 0-65 14-88 37-24 23-37 55-37 88v521h-59v83h187v41zM429 622h166v41h-166v-41zM300 539v-521c0-11 5-21 12-29 8-8 19-12 30-12h340c11 0 22 4 30 12 7 8 12 18 12 29v521h-424zM387 81v333h83v-333h-83zM554 81v333h83v-333h-83z" />
<glyph unicode="&#xe074;" glyph-name="prohibited" d="M512 747c235 0 427-192 427-427s-192-427-427-427-427 192-427 427 192 427 427 427zM243 111c67-87 167-132 268-132 73 0 147 24 210 72l-478 478c-47-60-72-132-72-209s25-149 72-209zM781 111c47 60 72 132 72 209s-25 149-72 209c-67 87-167 132-268 132-73 0-147-24-210-72z" />
<glyph unicode="&#xe075;" glyph-name="night" d="M151 400c8 107 72 230 170 303 4 2 8 3 12 3 11 0 23-8 23-20 0-85 17-299 119-401 107-107 307-179 384-205 10-3 16-10 16-18 0-5-2-11-7-16-78-74-201-112-303-112-10 0-20 0-30 1-222 20-386 207-386 425 0 14 1 27 2 40z" />
<glyph unicode="&#xe076;" glyph-name="arrow_up" d="M874 392h1c5-5 7-12 7-18 0-7-2-14-8-19l-37-38c-5-5-12-8-19-8s-14 3-19 8l-234 234v-628c0-15-12-26-26-26h-54c-14 0-26 11-26 26v628l-234-234c-5-5-12-8-19-8s-14 3-19 8l-38 38c-5 5-7 12-7 19 0 6 2 13 7 18l344 344c5 5 12 7 19 7s14-2 19-7z" />
<glyph unicode="&#xe077;" glyph-name="arrow_up_thick" d="M529 741c60-60 371-379 371-379 4-6 5-11 5-15 0-15-15-24-18-24h-226c-13 0-21-8-21-21v-388c0-13-9-21-21-21h-214c-12 0-21 8-21 21v388c0 13-8 21-21 21h-226c-3 0-18 9-18 24 0 4 1 9 5 15 90 89 316 319 375 379 4 4 10 6 15 6s11-2 15-6z" />
<glyph unicode="&#xe078;" glyph-name="restore" d="M875 704c8 0 21-9 21-21v-726c0-12-9-21-21-21h-726c-12 0-21 9-21 21v726c0 12 9 21 21 21h726zM755 307c4 4 7 10 7 15s-3 11-7 15l-234 230c-5 5-10 7-15 7-6 0-11-2-15-7l-235-230c0-4-4-8-4-13 0-13 8-21 21-21h154v-218c0-12 8-21 21-21h128c13 0 21 9 21 21v218h150c4 0 8 4 8 4z" />
<glyph unicode="&#xe079;" glyph-name="arrow_right" d="M584 683v-1l344-343c5-5 7-12 7-19s-2-14-7-19l-344-343c-5-6-12-8-18-8-7 0-14 2-19 8l-38 37c-5 5-8 12-8 19s3 14 8 19l234 234h-628c-15 0-26 12-26 26v54c0 14 11 26 26 26h628l-234 234c-5 5-8 12-8 19s3 14 8 19l38 37c5 6 12 8 19 8 6 0 13-2 18-7z" />
<glyph unicode="&#xe07a;" glyph-name="arrow_right_thick" d="M554 708c0 0 319-311 379-371 4-4 6-10 6-15s-2-11-6-15c-60-59-290-285-379-375-6-4-11-5-15-5-15 0-24 15-24 18v226c0 13-8 21-21 21h-388c-13 0-21 9-21 21v214c0 12 8 21 21 21h388c13 0 21 8 21 21v226c0 3 9 18 24 18 4 0 9-1 15-5z" />
<glyph unicode="&#xe07c;" glyph-name="arrow_down" d="M875 248h-1l-343-344c-5-5-12-7-19-7s-14 2-19 7l-344 344c-5 5-7 12-7 18 0 7 2 14 7 19l38 38c5 5 12 8 19 8s14-3 19-8l234-234v628c0 15 12 26 26 26h54c14 0 26-11 26-26v-628l234 234c5 5 12 8 19 8s13-3 19-8l37-38c6-5 8-12 8-19 0-6-2-13-7-18z" />
<glyph unicode="&#xe07d;" glyph-name="arrow_down_thick" d="M900 278c0 0-311-319-371-379-4-4-10-6-15-6s-11 2-15 6c-59 60-285 290-375 379-4 6-5 11-5 15 0 15 15 24 18 24h226c13 0 21 8 21 21v388c0 13 9 21 21 21h214c12 0 21-8 21-21v-388c0-13 8-21 21-21h226c3 0 18-9 18-24 0-4-1-9-5-15z" />
<glyph unicode="&#xe07e;" glyph-name="archive" d="M875 704c8 0 21-13 21-21v-726c0-12-9-21-21-21h-726c-12 0-21 9-21 21v726c0 8 9 21 21 21h726zM759 299c5 4 5 8 9 17 0 13-9 21-21 21h-150v218c0 8-8 21-21 21h-128c-13 0-21-13-21-21v-222h-154c-4 0-8 0-13-4-4-5-6-10-6-15 0-6 2-11 6-15l235-231c4-4 10-6 15-6s11 2 15 6z" />
<glyph unicode="&#xe07f;" glyph-name="arrow_left" d="M440 682v1c5 5 12 7 18 7 7 0 14-2 19-8l38-37c5-5 8-12 8-19s-3-14-8-19l-234-234h628c15 0 26-12 26-26v-54c0-14-11-26-26-26h-628l234-234c5-5 8-12 8-19s-3-14-8-19l-38-37c-5-6-12-8-19-8-6 0-13 2-18 8l-344 343c-5 5-7 12-7 19s2 14 7 19z" />
<glyph unicode="&#xe080;" glyph-name="arrow_left_thick" d="M91 337c60 60 379 371 379 371 6 4 11 5 15 5 15 0 24-15 24-18v-226c0-13 8-21 21-21h388c13 0 21-9 21-21v-214c0-12-8-21-21-21h-388c-13 0-21-8-21-21v-226c0-3-9-18-24-18-4 0-9 1-15 5-89 90-319 316-379 375-4 4-6 10-6 15s2 11 6 15z" />
<glyph unicode="&#xe082;" glyph-name="external_link_no_box" d="M323 156l-61 60 354 354h-281v85h427v-427h-86v281z" />
<glyph unicode="&#xe083;" glyph-name="expand" d="M917 747c9 0 22-9 22-22v-200c0-15-12-23-24-23-5 0-11 2-15 6l-72 72-214-213-59 60 213 213-68 68c-4 5-5 10-5 15 0 13 10 24 22 24h200zM107-107c-13 0-22 9-22 22v200c0 16 12 25 23 25 4 0 8-1 11-3l73-73 213 213 60-59-213-214 72-72c4-5 5-10 5-15 0-13-10-24-22-24h-200z" />
<glyph unicode="&#xe084;" glyph-name="special_offer_fill_45deg" d="M866 677l30-307c0-4 0-13-4-17l-431-431c-4-4-10-6-15-6s-11 2-15 6l-333 333c-4 4-6 10-6 15s2 11 6 15l431 435c4 4 13 4 17 4l299-25c13-5 21-13 21-22zM708 502c26 0 43 17 43 43s-17 43-43 43c-25 0-42-17-42-43s17-43 42-43z" />
<glyph unicode="&#xe085;" glyph-name="special_offer_fill" d="M934 333c5-9 5-17 0-26l-196-234c-4-5-13-9-17-9h-614c-13 0-22 9-22 21v470c0 12 9 21 22 21h614c4 0 13-4 17-9zM755 294c9 9 13 20 13 30 0 11-4 22-13 30-8 9-19 13-30 13-10 0-21-4-30-13-8-8-12-19-12-30 0-10 4-21 12-30 9-8 20-12 30-12 11 0 22 4 30 12z" />
<glyph unicode="&#xe086;" glyph-name="friend_fill" d="M341 533c0 95 77 171 171 171s171-76 171-171c0-94-77-170-171-170s-171 76-171 170zM832-64h-640c-13 0-21 9-21 21v184c0 4 0 8 4 13 84 109 210 166 336 166 91 0 183-29 261-90 30-21 56-47 77-76 4-5 4-9 4-13v-184c0-12-8-21-21-21z" />
<glyph unicode="&#xe087;" glyph-name="add_friend" d="M428 363c-94 0-171 76-171 170 0 95 77 171 171 171s171-76 171-171c0-94-77-170-171-170zM428 619c-47 0-85-39-85-86s38-85 85-85 85 38 85 85-38 86-85 86zM427 320c140 0 263-68 341-172v-212h-683v211c78 104 202 173 342 173zM682 21v97c-65 75-156 117-255 117s-191-43-256-118v-96h511zM939 576v-85h-86v-86h-85v86h-85v85h85v86h85v-86h86z" />
<glyph unicode="&#xe088;" glyph-name="star_rating_full" d="M997 469c17-5 27-19 27-33 0-3 0-6-1-8 0-6-5-11-5-11l-189-235c-6-10-11-21-11-26l21-312c0-21-16-36-31-36-5 0-10 0-15 5l-266 113c-5 0-10 5-15 5s-10-5-15-5l-266-113c-5-5-10-5-15-5-15 0-31 15-31 36l21 312c0 5-5 16-11 26l-189 235s-5 5-5 11c-1 2-1 5-1 8 0 13 10 28 27 33l281 71c10 5 15 10 20 16l154 261c10 10 20 15 30 15s20-5 30-15l154-261c5-6 10-11 20-16z" />
<glyph unicode="&#xe089;" glyph-name="star_rating_half" d="M482 817c10 10 20 15 30 15v-901c-5 0-10-5-15-5l-266-113c-5-5-10-5-15-5-15 0-31 15-31 36l21 312c0 5-5 16-11 26l-189 235s-5 5-5 11c-1 2-1 5-1 8 0 13 10 28 27 33l281 71c10 5 15 10 20 16z" />
<glyph unicode="&#xe08a;" glyph-name="children" d="M710 469c-60 0-107 47-107 107s47 107 107 107 107-47 107-107-47-107-107-107zM309 469c-60 0-107 47-107 107 5 55 52 102 107 107 60 0 107-47 107-107s-47-107-107-107zM932 247c4-8 4-21-4-25l-30-30c-4-4-10-6-15-6s-11 2-15 6l-47 47 38-154h-42v-106c0-13-9-22-22-22h-42c-13 0-22 9-22 22v106h-42v-106c0-13-9-22-22-22h-42c-13 0-22 9-22 22v106h-42l30 154-47-47c-5-4-10-6-15-6-6 0-11 2-15 6l-9 9-8-9c-5-4-10-6-15-6-6 0-11 2-15 6l-51 51v-264c0-13-9-22-22-22h-42c-13 0-22 9-22 22v106h-42v-106c0-13-9-22-22-22h-42c-13 0-22 9-17 17v265l-52-51c-4-4-9-7-15-7-5 0-10 3-14 7l-30 30c-5 4-7 9-7 15 0 5 2 10 7 14 0 0 111 133 115 133 8 8 17 13 25 21 25 19 54 29 83 29 41 0 82-19 109-55 0 0 56-64 86-102 34 38 94 107 94 107 8 8 17 13 25 21 25 19 54 29 82 29 42 0 83-19 110-55z" />
<glyph unicode="&#xe08b;" glyph-name="travelers_choice_badge" d="M823 173c43 41 98 48 98 48s-19-43-66-87c-44-41-88-42-92-42 0 0 16 40 60 81zM364 324c0 22 17 39 38 39 22 0 39-17 39-39 0-21-17-39-39-39-21 0-38 18-38 39zM293 324c0 32 14 61 36 81l-36 39h79c40 27 88 43 140 43s100-16 140-43h79l-36-39c22-20 36-48 36-80 0-61-49-110-109-110-29 0-55 11-75 29l-35-38-35 38c-20-18-46-29-75-29-60 0-109 49-109 109zM621 398c-40 0-74-33-74-74s34-74 74-74c41 0 75 33 75 74s-34 74-75 74zM430 435c47-18 82-60 82-109 0 49 35 91 82 109-25 11-53 16-82 16s-57-5-82-16zM328 324c0-41 34-74 74-74 41 0 75 33 75 74s-34 74-75 74c-40 0-74-33-74-74zM772 79c15 0 24-2 24-2s-25-23-69-40c-19-7-35-9-47-9-17 0-26 3-26 3s22 22 63 38c20 8 40 10 55 10zM583 324c0 22 17 39 39 39 21 0 38-17 38-39 0-21-17-39-38-39-22 0-39 18-39 39zM854 320c0 0-2 13-2 34 0 18 1 42 8 68 14 59 55 95 55 95s2-12 2-31c0-20-2-48-10-80-15-62-53-86-53-86zM939 348c0 0-10-46-47-99-36-52-81-60-81-60s8 43 42 92 86 67 86 67zM261 92c-4 0-48 1-92 42-47 43-66 87-66 87s55-7 98-48c44-41 60-81 60-81zM370 31c0 0-9-3-26-3-12 0-28 2-47 9-44 17-69 40-69 40s9 2 24 2 35-2 55-10c41-16 63-38 63-38zM132 249c-37 52-47 99-47 99s52-18 86-67 42-92 42-92-45 8-81 60zM195 346c0 175 142 317 317 317s318-142 318-317c0-176-143-318-318-318s-317 143-317 318zM230 346c0-156 126-282 282-282s282 126 282 282-126 282-282 282-282-126-282-282zM117 406c-8 32-10 60-10 80 0 19 2 31 2 31s41-36 55-95c7-26 8-50 8-68 0-21-2-34-2-34s-38 24-53 86zM358-1c0 0 32 20 67 20 31 0 52-9 52-9s-19-18-56-20h-6c-34 0-57 9-57 9zM599 19c35 0 67-20 67-20s-23-9-57-9h-6c-37 2-56 20-56 20s21 9 52 9zM494-5c0 10 8 18 18 18s18-8 18-18-8-18-18-18-18 8-18 18z" />
<glyph unicode="&#xe08c;" glyph-name="checkmark_c_fill" d="M512 747c235 0 427-192 427-427s-192-427-427-427-427 192-427 427 192 427 427 427zM427 98l358 359-68 68-290-290-111 111-69-69z" />
<glyph unicode="&#xe08d;" glyph-name="lock" d="M781 477c50 0 90-40 90-90v-404c0-49-40-90-90-90h-538c-50 0-90 41-90 90v404c0 50 40 90 90 90h2c6 60 25 119 59 167 45 62 115 103 208 103s163-41 208-103c34-48 53-107 59-167h2zM377 591c-22-30-36-70-42-114h354c-6 44-20 84-42 114-28 39-71 66-135 66s-107-27-135-66zM781-17v404h-538v-404h538zM557 95h-90v180h90v-180z" />
<glyph unicode="&#xe08f;" glyph-name="diagonal_c_half_fill" d="M815 623c83-83 124-192 124-301 0-110-42-221-128-305-84-83-192-125-301-125s-218 42-301 125-125 193-125 303 42 220 125 303 193 125 303 125 220-42 303-125zM273 77l482 482c-66 66-152 99-239 99s-175-33-243-99-102-153-102-240c0-86 34-174 102-242z" />
<glyph unicode="&#xe090;" glyph-name="settings" d="M512 405c-47 0-85-38-85-85s38-85 85-85 85 38 85 85-38 85-85 85zM341 320c0 94 77 171 171 171s171-77 171-171-77-171-171-171-171 77-171 171zM363 664c1 46 39 83 85 83h128c47 0 85-39 85-86v-33l40-15 37 21c14 8 28 12 43 12 29 0 58-16 74-43l64-111c7-13 11-28 11-42 0-30-15-59-43-74l-34-20v-54l34-20c28-16 43-44 43-74 0-14-4-29-11-42l-64-111c-16-28-45-43-74-43-15 0-29 4-43 12l-34 19-43-25v-39c0-47-38-86-85-86h-128c-47 0-85 39-85 86v39l-43 25-34-19c-14-8-28-12-43-12-29 0-58 15-74 43l-64 111c-7 13-11 28-11 42 0 30 15 58 43 74l34 20v54l-34 20c-28 15-43 44-43 74 0 14 4 29 11 42l64 111c16 27 45 43 74 43 15 0 29-4 43-12l37-21 40 15v36zM448 661v-91l-131-52-74 42-64-110 77-45v-152l-77-45 64-110 77 44 128-75v-88h128v88l128 75 77-44 64 110-77 45v152l77 45-64 110-74-42-131 52v91h-128z" />
<glyph unicode="&#xe091;" glyph-name="more_horizontal" d="M85 324c0 59 48 107 107 107s107-48 107-107-48-106-107-106-107 47-107 106zM725 324c0 59 48 107 107 107s107-48 107-107-48-106-107-106-107 47-107 106zM405 324c0 59 48 107 107 107s107-48 107-107-48-106-107-106-107 47-107 106z" />
<glyph unicode="&#xe092;" glyph-name="more_vertical" d="M405 4c0 59 48 107 107 107s107-48 107-107-48-106-107-106-107 47-107 106zM405 644c0 59 48 107 107 107s107-48 107-107-48-106-107-106-107 47-107 106zM405 324c0 59 48 107 107 107s107-48 107-107-48-106-107-106-107 47-107 106z" />
<glyph unicode="&#xe093;" glyph-name="checkbox_border" d="M811-107h-598c-70 0-128 58-128 128v598c0 70 58 128 128 128h598c70 0 128-58 128-128v-598c0-70-58-128-128-128zM213 661c-23 0-42-19-42-42v-598c0-23 19-42 42-42h598c23 0 42 19 42 42v598c0 23-19 42-42 42h-598z" />
<glyph unicode="&#xe094;" glyph-name="checkbox_checked" d="M811 747c70 0 128-58 128-128v-598c0-70-58-128-128-128h-598c-70 0-128 58-128 128v598c0 70 58 128 128 128h598zM427 89l371 372-60 60-311-311-141 140-60-60z" />
<glyph unicode="&#xe096;" glyph-name="alert" d="M933 0c4-7 6-14 6-21 0-8-2-15-6-22-8-13-22-21-37-21h-768c-15 0-29 8-37 21-4 7-6 14-6 22 0 7 2 14 6 21l384 682c7 14 22 22 37 22s30-8 37-22zM201 21h622l-311 553zM459 117c0 30 24 54 53 54s53-24 53-54c0-29-24-53-53-53s-53 24-53 53zM469 213v192h86v-192h-86z" />
<glyph unicode="&#xe097;" glyph-name="instant" d="M751 393c12 0 20-12 20-23 0-4-1-8-3-12l-307-456c-5-6-11-9-18-9-10 0-21 8-21 22v320c0 12-8 21-21 21h-124c-12 0-20 9-20 19 0 4 1 7 3 11l265 452c3 6 9 9 15 9 12 0 25-8 27-22l-4-311c0-13 9-21 22-21h166z" />
<glyph unicode="&#xe098;" glyph-name="dmo" d="M469 450v85h86v-85h-86zM469 151v256h86v-256h-86zM934 335c5-9 5-21 0-30l-106-107c0-4-5-12-5-17v-149c0-13-8-21-21-21h-149c-9 0-13 0-17-5l-107-106c-4-5-10-7-15-7s-11 2-15 7l-106 106c-5 0-13 5-18 5h-149c-13 0-21 8-21 21v149c0 9 0 13-4 17l-107 107c-4 4-7 10-7 15s3 11 7 15l107 107c0 4 4 12 4 17v149c0 13 8 21 21 21h150c4 0 12 5 17 5l106 106c5 5 10 7 15 7 6 0 11-2 15-7l107-106c4 0 13-5 17-5h149c13 0 21-8 21-21v-149c0-9 0-13 5-17zM742 224l94 102-94 94v137h-136l-94 94-98-98h-137v-137l-94-94 90-89c0-5 4-13 4-18v-128h128c9 0 13 0 17-4l90-89 94 93h136v137z" />
<glyph unicode="&#xe099;" glyph-name="reply_fill" d="M933 61c4-7 5-13 5-19s-1-11-1-15c-7-9-17-14-28-14-9 0-17 4-23 10-111 98-252 145-435 149v-175c-5-4-5-9-9-13-6-4-14-6-21-6s-13 2-17 6l-312 316c-4 6-6 13-6 19s2 13 6 19l307 316c5 4 9 8 13 8 13 0 30-8 30-21v-171c226-34 418-192 491-409z" />
<glyph unicode="&#xe09a;" glyph-name="share" d="M751-107h-478c-66 0-120 64-120 142v317c0 73 57 139 120 139h80v-80h-80c-13 0-40-27-40-59v-317c0-37 21-62 40-62h478c19 0 40 25 40 62v317c0 32-27 59-40 59h-80v80h80c63 0 120-66 120-139v-317c0-78-54-142-120-142zM682 576l-56-56-74 74v-322h-80v322l-74-74-57 56 171 171z" />
<glyph unicode="&#xe09b;" glyph-name="feedback_love" d="M913 747c13 0 26-13 26-26v-589c0-13-13-25-26-25h-171c-8 0-12 0-17-5-42-29-273-200-273-200-4 0-8-4-13-4-2-1-4-1-6-1-14 0-24 11-28 26v158c0 13-12 26-25 26h-269c-13 0-26 12-26 25v589c0 13 13 26 26 26h802zM521 290c17 13 162 107 166 179 0 56-47 98-102 98-26 0-47-8-64-21-5-4-9-4-13 0-22 13-43 21-64 21-3 1-5 1-7 1-53 0-96-46-96-99 0-72 145-166 162-175l9-8z" />
<glyph unicode="&#xe09c;" glyph-name="traveler_article" d="M341 235v89h342v-89h-342zM341 107v85h342v-85h-342zM341 363v85h342v-85h-342zM832 704c13 0 21-9 21-21v-768c0-13-8-22-21-22h-640c-9 0-21 9-21 22v768c0 12 12 21 21 21h107v21c0 13 12 22 21 22h43c12 0 21-9 21-22v-21h85v21c0 13 13 22 22 22h42c13 0 22-9 22-22v-21h85v21c0 13 13 22 21 22h43c13 0 21-9 21-22v-21h107zM768-21v640h-43v-22c0-12-8-21-21-21h-43c-8 0-21 9-21 21v22h-85v-22c0-12-9-21-22-21h-42c-9 0-22 9-22 21v22h-85v-22c0-12-9-21-21-21h-43c-9 0-21 9-21 21v22h-43v-640h512z" />
<glyph unicode="&#xe09d;" glyph-name="custom_note" d="M171 704c0 24 19 43 42 43h598c23 0 42-19 42-43v-533c0-12-4-23-12-30l-235-235c-8-8-19-13-30-13h-363c-23 0-42 19-42 43v768zM256 661v-682h277v192c0 23 19 42 43 42h192v448h-512zM708 128h-89v-89zM683 448h-342v85h342v-85zM533 277h-192v86h192v-86z" />
<glyph unicode="&#xe09e;" glyph-name="level_badge" d="M764 533c38-21 59-64 59-106v-214c0-47-25-89-64-111l-183-106c-18-10-39-16-59-16-22 0-45 7-65 20l-183 107c-39 21-64 64-64 106v214c0 42 25 85 64 106l188 107c19 11 40 16 61 16 22 0 43-5 62-16zM823 597c52-30 86-89 86-149v-256c0-60-34-119-86-149l-226-128c-25-17-55-22-81-22-30 0-64 9-89 26l-222 128c-51 30-86 85-86 145v252c0 59 35 119 86 149l222 128c25 17 55 26 89 26 30 0 60-9 86-22zM853 192v256c0 43-21 85-59 107l-222 128c-22 8-39 12-56 12-21 0-42-4-64-17l-222-128c-39-19-64-58-64-97v-261c0-43 26-81 64-102l222-128c22-13 43-17 64-17 22 0 39 4 56 17l222 123c34 22 59 64 59 107z" />
<glyph unicode="&#xe09f;" glyph-name="level_badge_fill" d="M823 597c52-30 86-89 86-149v-256c0-60-34-119-86-149l-226-128c-25-17-55-22-81-22-30 0-64 9-89 26l-222 128c-51 30-86 85-86 145v252c0 59 35 119 86 149l222 128c25 17 55 26 89 26 30 0 60-9 86-22z" />
<glyph unicode="&#xe0a0;" glyph-name="award" d="M834 2c9 0 18-8 22-21v-43c0-13-9-21-22-21h-644c-13 0-21 8-21 21v43c0 13 8 21 21 21h644zM877 629c4-4 7-9 7-15 0-5-3-10-7-15l-85-59c0-5-4-5-4-9-39-94-120-158-218-179-9-4-17-13-17-21v-141c0-13 8-21 17-21 55-13 102-43 132-90 4-4 4-9 4-13 0-13-8-21-21-21h-363c-5 5-8 12-8 18 0 4 1 8 4 12 30 42 77 76 132 85 9 4 18 13 18 21v141c0 13-9 21-18 21-98 22-179 90-217 184 0 4 0 8-4 8l-81 69-5 4c-1 4-3 8-3 12 0 6 3 13 8 18l72 60c0 8 4 17 4 25h572c0-13 4-21 4-30z" />
<glyph unicode="&#xe0a1;" glyph-name="bell" d="M559 602c216-25 379-207 380-424v-47h-854v47c1 217 164 399 380 424v50c0 26 21 47 47 47s47-21 47-47v-50zM184 225h657c-22 145-135 258-280 280-16 2-33 3-49 3-162 0-304-118-328-283zM85-59v94h854v-94h-854z" />
<glyph unicode="&#xe0a2;" glyph-name="deals" d="M855 161h84v-250h-251v83h167v167zM939 747v-374l-481-480-373 372 481 482h373zM855 408v255h-255l-396-397 254-254zM709 454c-16 0-32 6-45 18-12 12-18 28-18 44 0 17 6 33 18 45 13 12 29 18 45 18s32-6 44-18 18-28 18-45c0-16-6-32-18-44s-28-18-44-18z" />
<glyph unicode="&#xe0a3;" glyph-name="destination" d="M918 576l-125-278 125-278h-428v86h-299v-213h-85v811c0 24 19 43 43 43 23 0 42-19 42-43v-43h384v-85h343zM490 191v385h-299v-385h299zM786 106l-87 192 87 192h-211v-384h211z" />
<glyph unicode="&#xe0a4;" glyph-name="camera_fill" d="M390 655h244l61-122h122c67 0 122-55 122-122v-304c0-67-55-122-122-122h-610c-67 0-122 55-122 122v304c0 67 55 122 122 122h122zM512 107c104 0 183 79 183 182 0 104-79 183-183 183s-183-79-183-183c0-103 79-182 183-182z" />
<glyph unicode="&#xe0a5;" glyph-name="lock_open" d="M781 477c50 0 90-40 90-90v-404c0-49-40-90-90-90h-538c-50 0-90 41-90 90v404c0 50 40 90 90 90h446c-6 44-20 84-42 114-28 39-71 66-135 66s-107-27-135-66l-73 53c45 62 115 103 208 103s163-41 208-103c34-48 53-107 59-167h2zM781-17v404h-538v-404h538zM557 95h-90v180h90v-180z" />
<glyph unicode="&#xe0a7;" glyph-name="tools" d="M917 47c13-17 22-38 22-60 0-51-43-94-94-94-22 0-43 9-60 22l-371 371c-29-13-61-19-92-19-9 0-19 1-28 2-89 13-166 77-196 166-8 26-13 51-13 76 0 26 5 50 13 74 0 4 4 4 4 8 7 4 13 6 19 6s11-2 16-6l115-115c4-4 10-7 17-7 6 0 13 3 17 7l68 64c4 4 7 11 7 17s-3 13-7 17l-115 119c0 5-4 5-4 9-1 3-2 6-2 9 0 9 6 18 19 21 23 8 48 13 72 13 25 0 49-5 73-13 4 0 8-4 13-4 92-37 152-127 152-224 0-27-5-56-16-84 68-68 367-371 371-375z" />
<glyph unicode="&#xe0a8;" glyph-name="favorite_pin" d="M936 420c4-4 4-11 0-15l-54-54-108-15-93-93-42-272c-1-6-6-9-11-9-3 0-6 1-8 3l-201 201-272-273-62 62 273 272-201 201c-6 6-2 17 6 18l272 44 92 92 16 107 54 54c2 3 5 4 8 4s5-1 7-4zM733 418l72 10-185 185-10-72-133-133-152-24 251-251 24 152z" />
<glyph unicode="&#xe0a9;" glyph-name="layers" d="M836 260l56-42c3-4 4-8 4-12 0-6-3-13-9-18l-362-290c-9-5-17-5-26 0l-367 294c-3 3-4 7-4 11 0 7 3 14 9 19l51 38 324-260zM909 435l-397-316-397 316 384 307c9 5 17 5 26 0z" />
<glyph unicode="&#xe0aa;" glyph-name="member" d="M512 747c236 0 427-191 427-427s-191-427-427-427-427 191-427 427 191 427 427 427zM336 28c54-33 115-49 176-49s122 16 176 49c-17 62-66 111-128 128-16 4-32 6-48 6-80 0-154-53-176-134zM758 84c64 66 95 151 95 237 0 85-31 170-95 236-67 70-156 105-246 105-85 0-170-32-236-95-70-67-105-157-105-247 0-85 31-170 95-236 27 64 78 116 143 143 33 14 68 21 103 21 104 0 203-62 246-164zM512 576c83 0 149-67 149-149 0-83-66-150-149-150-82 0-149 67-149 150 0 82 67 149 149 149zM512 363c35 0 64 28 64 64 0 35-29 64-64 64s-64-29-64-64c0-36 29-64 64-64z" />
<glyph unicode="&#xe0ac;" glyph-name="credit_card" d="M917 661c13 0 22-8 22-21v-640c0-13-9-21-22-21h-815c-12 0-21 8-21 21v640c0 13 9 21 21 21h815zM849 64v256h-683v-256h683zM849 491v85h-683v-85h683z" />
<glyph unicode="&#xe0ad;" glyph-name="wallet_fill" d="M922 533c8-4 17-12 17-21v-555c0-12-9-21-22-21h-810c-13 0-22 9-22 21v555c5 13 13 17 22 21l657 171c13 0 21-4 25-17l43-154h90zM721 606l-294-73h315zM725 188c39 0 64 30 64 64s-30 64-64 64-64-30-64-64 30-64 64-64z" />
<glyph unicode="&#xe0ae;" glyph-name="wallet" d="M922 533c8-4 17-12 17-21v-555c0-12-9-21-22-21h-810c-13 0-22 9-22 21v555c5 13 13 17 22 21l657 171c13 0 21-4 25-17l43-154h90zM721 606l-294-73h315zM853 21v427h-682v-427h682zM725 188c-34 0-64 30-64 64s30 64 64 64 64-30 64-64-25-64-64-64z" />
<glyph unicode="&#xe0af;" glyph-name="gallery" d="M448 747c13 0 21-9 21-22v-341c0-13-8-21-21-21h-341c-13 0-22 8-22 21v341c0 13 9 22 22 22h341zM917 747c13 0 22-9 22-22v-341c0-13-9-21-22-21h-341c-13 0-21 8-21 21v341c0 13 8 22 21 22h341zM448 277c13 0 21-8 21-21v-341c0-13-8-22-21-22h-341c-13 0-22 9-22 22v341c0 13 9 21 22 21h341zM917 277c13 0 22-8 22-21v-341c0-13-9-22-22-22h-341c-13 0-21 9-21 22v341c0 13 8 21 21 21h341z" />
<glyph unicode="&#xe0b0;" glyph-name="video_fill" d="M917 586c13 0 22-9 22-22v-486c0-9-5-13-9-17s-9-7-15-7c-5 0-10 3-15 7l-175 192v132l175 192c5 4 13 9 17 9zM619 597c12 0 21-8 21-21v-512c0-13-9-21-21-21h-512c-13 0-22 8-22 21v512c0 13 9 21 22 21h512z" />
<glyph unicode="&#xe0b1;" glyph-name="photo" d="M256 427c0 35 29 64 64 64s64-29 64-64c0-36-29-64-64-64s-64 28-64 64zM277 149c-14 0-23 10-23 22 0 5 2 11 6 17l68 59c5 5 11 7 18 7 6 0 12-2 17-7l47-46c4-5 10-7 17-7 6 0 12 2 17 7l128 115c4 4 10 6 17 6 6 0 13-2 17-6l153-128c5-4 6-10 6-15 0-12-8-24-23-24h-465zM917 661c13 0 22-8 22-21v-640c0-13-9-21-22-21h-810c-13 0-22 8-22 21v640c0 13 9 21 22 21h810zM853 64v512h-682v-512h682z" />
<glyph unicode="&#xe0b2;" glyph-name="storyboard" d="M427 469l256-149-256-149v298zM939 0h-854v640h854v-640zM171 85h682v470h-682v-470z" />
<glyph unicode="&#xe0b3;" glyph-name="management_center" d="M192 107c-13 0-21 8-21 21v512c0 13 8 21 21 21h640c13 0 21-8 21-21v-512c0-13-8-21-21-21h-640zM256 576v-384h512v384h-512zM917 64c13 0 22-9 22-21v-43c0-13-9-21-22-21h-810c-13 0-22 8-22 21v43c0 12 9 21 22 21h810zM299 363v170h170v-170h-170zM299 235v85h170v-85h-170zM512 235v170h213v-170h-213zM512 448v85h213v-85h-213z" />
<glyph unicode="&#xe0b4;" glyph-name="flights_arrival" d="M128-21v85h768v-85h-768zM183 311c-8 5-12 9-12 22l-9 222v4c4 10 13 18 21 18 2 0 3 0 5-1l47-13c4 0 12-8 12-13l47-128c5-4 9-8 13-12l124-39h4c13 0 22 9 22 22l-5 256v4c4 10 10 18 20 18 2 0 4 0 6-1l43-13c8 0 17-4 17-13l85-307c4-8 8-17 17-17 38-13 171-47 171-47 8 0 17-4 21-8 17-9 30-26 30-47 0-35-26-64-60-69-8-4-13 0-21 0v0 0c-103 30-521 141-598 162z" />
<glyph unicode="&#xe0b5;" glyph-name="flights_departure" d="M128-21v85h768v-85h-768zM260 149c-8-4-17 0-17 9l-119 188c-5 0-5 4-5 4 0 13 5 21 18 25l42 13c9 0 17 0 22-4l102-85c8-5 13-5 21-5l124 35c0 4 4 4 4 4 8 5 11 12 11 19 0 4-1 8-2 11l-132 217c-5 0-5 5-5 5-4 12 5 21 13 25l43 13c8 0 17 0 21-9l235-217c4-9 13-13 21-9 38 13 171 47 171 47h21c17-4 34-13 47-30 8-11 12-23 12-36 0-20-10-40-29-53-9-5-13-9-21-9v0 0c-103-25-521-136-598-158z" />
<glyph unicode="&#xe0b6;" glyph-name="repost_fill" d="M91 61c72 217 260 375 486 409v171c5 13 22 21 34 21 5 0 9-4 13-8l307-316c5-6 7-13 7-19s-2-13-7-19l-311-316c-4-4-11-6-18-6s-14 2-20 6c-5 4-5 9-9 13v175c-175 0-316-51-427-149-6-6-14-10-23-10-10 0-21 5-28 14-5 5-9 12-9 19 0 5 2 10 5 15z" />
<glyph unicode="&#xe0b7;" glyph-name="link" d="M798 606c-30 31-70 46-110 46s-80-15-111-46l-126-126-67 67 126 126c49 49 113 74 178 74 64 0 128-25 177-74s74-113 74-177-25-129-74-178l-127-126-67 67 127 126c31 31 46 71 46 111s-15 80-46 110zM353 381l-127-126c-31-31-46-71-46-111s15-80 46-110c30-31 70-46 110-46s80 15 111 46l126 127 67-67-126-127c-49-49-113-74-178-74-64 0-128 25-177 74s-74 113-74 177c0 65 25 129 74 178l127 126zM688 429l-285-285-67 67 285 285z" />
<glyph unicode="&#xe0b8;" glyph-name="quote_decorative" d="M252 746c4 1 8 1 12 1 59 0 114-30 150-77 38-58 56-126 56-192 0-7-1-14-1-22-4-93-38-183-98-260-60-85-141-153-234-196l-39 77c64 30 124 77 171 132 42 56 64 119 68 188h-51c-34 0-64 4-98 12-22 13-43 26-64 43-9 21-22 38-26 60-8 21-13 42-13 64 0 47 17 89 52 119 29 30 72 47 115 51zM883 670c38-58 56-126 56-192 0-7-1-14-1-22-4-93-38-183-98-260-60-85-141-153-235-196l-38 77c64 30 124 77 171 132 42 55 64 119 68 188h-51c-34 0-64 4-98 12-22 13-43 26-64 43-13 17-22 38-30 55-4 26-9 47-9 69 0 47 17 89 52 119 29 30 72 47 115 51 4 1 8 1 12 1 59 0 114-30 150-77z" />
<glyph unicode="&#xe0b9;" glyph-name="quote" d="M85 363v384h384v-384l-128-214h-170l128 214h-214zM555 747h384v-384l-128-214h-171l128 214h-213v384z" />
<glyph unicode="&#xe0ba;" glyph-name="bookmark" d="M789 741c13 0 22-9 22-22v-797c0-15-12-23-23-23-3 0-5 1-7 1l-269 115-269-115c-2 0-4-1-7-1-11 0-23 8-23 23v797c0 13 9 22 22 22h554zM725 15v640h-426v-640l213 90z" />
<glyph unicode="&#xe0bb;" glyph-name="bookmark_fill" d="M789 741c13 0 22-9 22-22v-797c0-15-12-23-23-23-3 0-5 1-7 1l-269 115-269-115c-2 0-4-1-7-1-11 0-23 8-23 23v797c0 13 9 22 22 22h554z" />
<glyph unicode="&#xe0bc;" glyph-name="verified_checkmark" d="M469 159l-133 132 59 60 74-73 159 159 60-60zM512-107l-110 90-141-8-36 137-119 76 52 132-52 132 119 76 36 137 141-8 110 90 110-90 141 8 36-137 119-76-52-132 52-132-119-76-36-137-141 8zM430 69l82-67 82 67 105-6 26 102 89 57-38 98 38 98-89 57-26 102-105-6-82 67-82-67-105 6-26-102-89-57 38-98-38-98 89-57 26-102z" />
<glyph unicode="&#xe0bd;" glyph-name="verified_checkmark_fill" d="M917 452l-51-132 51-132-119-77-34-137-141 9-111-90-111 90-141-9-34 137-119 77 51 132-51 132 119 77 34 137 141-9 111 90 111-90 141 9 34-137zM469 158l218 217-60 60-158-158-72 73-60-60z" />
<glyph unicode="&#xe0be;" glyph-name="users" d="M341 427c-76 0-138 62-138 138 0 77 62 139 138 139 77 0 139-62 139-139 0-76-62-138-139-138zM341 619c-29 0-53-24-53-54 0-29 24-53 53-53 30 0 54 24 54 53 0 30-24 54-54 54zM683 341c-77 0-139 63-139 139s62 139 139 139c76 0 139-62 139-139 0-76-63-139-139-139zM683 533c-30 0-53-24-53-53s23-53 53-53c29 0 53 24 53 53s-24 53-53 53zM930 174l9-11v-227h-854v314l9 11c58 78 148 123 248 123 91 0 175-38 233-105 34 13 70 20 108 20 98 0 188-46 247-125zM171 21h256v141l8 11c18 25 40 45 63 63-41 40-96 63-156 63-68 0-130-28-171-78v-200zM853 21v113c-43 50-104 79-170 79-67 0-128-29-171-80v-112h341z" />
<glyph unicode="&#xe0bf;" glyph-name="pause" d="M512 747c235 0 427-192 427-427s-192-427-427-427-427 192-427 427 188 427 427 427zM512-21c188 0 341 153 341 341s-153 341-341 341-341-153-341-341 153-341 341-341zM384 107v426h85v-426h-85zM555 107v426h85v-426h-85z" />
<glyph unicode="&#xe0c0;" glyph-name="play" d="M512 747c235 0 427-192 427-427s-192-427-427-427-427 192-427 427 188 427 427 427zM512-21c188 0 341 153 341 341s-153 341-341 341-341-153-341-341 153-341 341-341zM678 329c9-5 9-18 0-22l-230-132c-9-4-21 4-21 13v260c0 13 12 17 21 13z" />
<glyph unicode="&#xe0c1;" glyph-name="volume_off" d="M516 644c6 4 12 6 18 6 12 0 22-7 25-19v-618c0-15-12-23-23-23-6 0-11 2-15 6l-171 170c-4 0-13 5-17 5h-184c-12 0-21 8-21 21v256c0 13 9 21 21 21h184c4 0 13 0 13 5zM905 410l-90-90 90-90-60-64-90 94-89-89-60 59 85 90-89 90 64 59 89-89 90 94z" />
<glyph unicode="&#xe0c2;" glyph-name="volume_on" d="M640 533c85-38 141-128 141-213v-8c0-87-62-172-141-205v426zM516 644c6 4 12 6 18 6 12 0 22-7 25-19v-618c0-15-12-23-23-23-6 0-11 2-15 6l-171 170c-4 0-13 5-17 5h-184c-12 0-21 8-21 21v256c0 13 9 21 21 21h184c4 0 13 0 13 5z" />
<glyph unicode="&#xe0c3;" glyph-name="suitcase" d="M640 61v340h85v-340h-85zM853 552c47 0 86-39 86-86v-469c0-47-39-85-86-85h-682c-47 0-86 38-86 85v469c0 47 39 86 86 86h191v123c0 29 24 53 54 53h192c29 0 53-24 53-53v-123h192zM448 643v-91h128v91h-128zM853-4v469h-682v-469h682zM298 61v340h86v-340h-86z" />
<glyph unicode="&#xe0c4;" glyph-name="suitcase_fill" d="M853 552c47 0 86-39 86-86v-469c0-47-39-85-86-85h-682c-47 0-86 38-86 85v469c0 47 39 86 86 86h191v123c0 29 24 53 54 53h192c29 0 53-24 53-53v-123h192zM384 61v340h-86v-340h86zM576 552v91h-128v-91h128zM725 61v340h-85v-340h85z" />
<glyph unicode="&#xe0c5;" glyph-name="my_trips" d="M768-107l-13 8c-21 13-200 127-200 213 0 66 57 121 128 121 29 0 57-15 76-27 5-2 9-2 13 0 22 12 49 27 81 27 71 0 128-54 128-119 0-88-178-202-200-215zM427 747h170c36 0 64-29 64-64v-107h192c47 0 86-38 86-85v-188c-27 11-56 17-86 17v171h-682v-470h326c6-9 12-18 18-26 16-21 34-41 54-59h-398c-47 0-86 38-86 85v470c0 47 39 85 86 85h192v107c0 35 28 64 64 64zM576 576v85h-128v-85h128zM725 315c-13 3-27 5-42 5s-29-1-43-4v111h85v-112zM299 427h85v-342h-85v342z" />
<glyph unicode="&#xe0c7;" glyph-name="compass" d="M512 747c236 0 427-191 427-427s-191-427-427-427-427 191-427 427 191 427 427 427zM512-21c188 0 341 153 341 341s-153 341-341 341-341-153-341-341 153-341 341-341zM335 145l59 292 292 59-58-293zM466 365l-22-112 111 23 22 111z" />
<glyph unicode="&#xe0c8;" glyph-name="compass_fill" d="M579 387l-23-111-111-23 23 112zM512 747c236 0 427-191 427-427s-191-427-427-427-427 191-427 427 191 427 427 427zM629 203l58 293-292-59-58-292z" />
<glyph unicode="&#xe0c9;" glyph-name="sort" d="M375 742l128-119c5-6 6-11 6-17 0-12-8-21-23-21h-81v-692h-89v692h-81c-12 0-21 9-21 19 0 5 2 10 8 15l124 123c8 5 25 5 29 0zM794 55c14 0 23-11 23-23 0-5-2-11-6-15l-128-119c-7-5-13-7-19-7s-11 2-15 7l-128 119c-5 6-6 11-6 17 0 12 8 21 23 21h81v692h89v-692h86z" />
<glyph unicode="&#xe0ca;" glyph-name="text_message" d="M299 390c0 27 21 48 47 48 27 0 48-21 48-48 0-26-21-47-48-47-26 0-47 21-47 47zM465 390c0 27 22 48 48 48s47-21 47-48c0-26-21-47-47-47s-48 21-48 47zM631 390c0 27 21 48 47 48s47-21 47-48c0-26-21-47-47-47s-47 21-47 47zM844 628h-664v-586l131 112 532-1zM939 723l-1-665-592 1-166-142h-95v806h854z" />
<glyph unicode="&#xe0cb;" glyph-name="bathroom_fill" d="M915 272c13-5 17-17 17-26l-72-256c-5-13-13-17-22-17h-21v-43h-85v43h-427v-43h-85v43h-34c-9 0-17 4-22 17l-72 256v4c0 13 8 22 21 22h21v405c0 13 9 21 22 21h170c16 8 32 12 48 12 29 0 58-13 80-37l-170-171c-19 22-29 52-29 82 0 9 1 19 3 29h-17c-13 0-21-9-21-21v-320h695zM604 400c0 23 19 42 42 42 24 0 43-19 43-42 0-24-19-43-43-43-23 0-42 19-42 43zM518 485c0 24 20 43 43 43 24 0 43-19 43-43s-19-43-43-43c-23 0-43 19-43 43zM433 400c0 23 19 42 43 42 23 0 42-19 42-42 0-24-19-43-42-43-24 0-43 19-43 43zM433 570c0 24 19 43 43 43 23 0 42-19 42-43 0-23-19-42-42-42-24 0-43 19-43 42zM348 485c0 24 19 43 42 43 24 0 43-19 43-43s-19-43-43-43c-23 0-42 19-42 43z" />
<glyph unicode="&#xe0cc;" glyph-name="ports" d="M934 166c5-4 0-13-4-13h-55c-60-154-201-260-363-260s-303 106-358 260h-60c-4 0-9 9-4 13l98 115c4 4 4 4 8 0l98-115c5-4 5-13-4-13h-51c34-68 90-119 158-149 3-3 7-4 11-4 10 0 19 8 19 21l30 435h-141c-13 0-22 9-22 21v43c0 13 9 21 22 21h145l4 43c-26 17-43 43-43 77 0 47 43 86 90 86 4 0 8 0 13-1 30-8 55-34 64-64 2-9 4-17 4-25 0-32-19-59-43-73l5-43h145c13 0 21-8 21-21v-43c0-12-8-21-21-21h-141l34-435c0-13 7-21 19-21 4 0 9 1 15 4 69 25 124 81 162 149h-55c-4 0-9 9-4 13l98 115c4 4 4 4 8 0z" />
<glyph unicode="&#xe0cd;" glyph-name="map_and_pin" d="M821 298l116-315c0-9-5-13-17-17l-261-73h-8l-303 68h-13l-222-68c-13 0-21 4-26 17l43 312c0 8 4 17 17 21 34 13 150 60 188 72 8 5 21 0 26-8 25-38 85-141 110-179l13-13c11-7 23-10 35-10 18 0 36 7 46 23 26 34 56 81 86 128l145 55c2 1 4 2 7 2 7 0 15-5 18-15zM512 747c107 0 192-88 192-195 0-93-140-293-181-348-5-8-17-8-22 0-41 58-181 255-181 348 0 107 85 195 192 195zM512 492c30 0 55 25 55 55s-25 55-55 55-55-25-55-55 25-55 55-55z" />
<glyph unicode="&#xe0ce;" glyph-name="repost" d="M149 320c-12 0-21 9-21 21v265c0 13 9 21 21 21h576v94c0 16 14 27 26 27 5 0 9-2 13-6l123-145c5-6 7-14 7-20 0-7-2-14-7-18l-123-145c-4-6-10-8-15-8-12 0-24 10-24 25v102h-503v-192c0-12-9-21-21-21h-52zM875 320c12 0 21-9 21-21v-265c0-13-9-21-21-21h-576v-94c0-16-14-27-26-27-5 0-9 2-13 6l-123 145c-5 6-7 14-7 20 0 7 2 14 7 18l123 145c4 6 10 8 15 8 12 0 24-10 24-25v-102h503v192c0 12 9 21 21 21h52z" />
<glyph unicode="&#xe0d0;" glyph-name="partner" d="M726-28l-13 9c-22 13-201 132-201 222 0 68 58 125 128 125 30 0 58-14 77-27 4-2 9-2 13 0 21 13 49 27 81 27 70 0 128-55 128-123 0-92-179-209-201-222zM469 127c13-24 31-48 50-69 0-1-1-1-1-2l-48-32-48 32c-101 67-337 240-337 385 0 125 104 227 231 227 63 0 122-34 157-61 33 26 90 61 149 61 128 0 231-102 231-227 0-17-3-34-9-52-11 2-22 3-33 3-24 0-46-5-65-12 14 22 22 43 22 61 0 76-65 141-146 141-46 0-103-46-118-61l-35-27-31 31c-15 15-72 57-122 57-80 0-146-65-146-141 0-85 173-230 299-314z" />
<glyph unicode="&#xe0d1;" glyph-name="instagram" d="M936 495c0-43 4-60 4-175s-4-128-4-175c-4-34-8-68-21-102-22-56-69-103-124-124-34-13-68-21-102-21-56-5-116-5-175-5-60 0-120 0-180 5-34 4-68 8-102 21-55 21-102 68-124 124-12 34-21 68-21 102-2 30-3 59-3 88 0 28 1 57 3 87 0 115 4 128 4 175 0 38 9 72 22 107 21 55 68 98 123 119 30 13 64 21 98 21 60 5 120 5 180 5h175c34-5 68-9 102-22 60-21 102-68 124-128 13-34 21-68 21-102zM859 149c0 43 4 60 5 171 0 111-5 124-5 171 0 25-4 55-13 81-12 38-42 68-81 81-25 8-55 13-81 13-55 4-115 4-170 4-111 0-124-4-171-4-30 0-56-5-85-13-39-13-69-43-81-81-5-26-9-56-13-81-5-56-5-116-5-171 0-111 5-124 5-171 0-30 4-55 17-81 13-38 42-68 81-81 30-8 55-13 81-13 55-4 115-4 171-4 111 0 123 4 170 4 26 0 56 5 81 13 39 13 69 43 81 81 9 26 13 56 13 81zM518 538c119 0 218-99 218-218s-99-218-218-218c-120 0-218 99-218 218s94 218 218 218zM518 179c77 0 141 64 141 141-5 77-64 141-141 141s-141-64-141-141 64-141 141-141zM744 597c30 0 51-21 51-51s-21-51-51-51-51 21-51 51 21 51 51 51z" />
<glyph unicode="&#xe0d2;" glyph-name="pinterest" d="M637 722c184-56 299-222 299-403 0-42-6-84-19-127-56-183-222-299-403-299-42 0-85 7-127 19 25 35 39 74 54 113 5 20 25 103 25 103 24-34 59-49 98-49 127 0 221 118 221 265v10c-5 135-118 236-251 236h-9c-182 0-280-123-280-255 0-69 34-133 88-167 10-5 15-5 15 5 0 4 5 34 10 49 0 0 0 4-5 9-20 30-30 64-30 99v9c5 100 84 177 178 177h24c90 0 162-74 162-163v-9c0-118-59-196-133-196h-20c-28 4-46 28-46 56 0 6 1 12 2 18 15 49 25 93 35 142v5c0 29-25 54-54 54-45 0-79-44-79-103 0-25 5-45 15-64 0 0-39-177-49-211-3-20-4-41-4-62 0-20 1-41 4-61-162 64-270 221-270 398 0 235 191 427 427 427 44 0 88-5 122-25z" />
<glyph unicode="&#xe0d3;" glyph-name="facebook" d="M512 744c236 0 427-191 427-427 0-213-156-389-361-421v298h100l19 123h-119v80c0 34 17 67 70 67h54v105s-49 9-95 9c-98 0-161-60-161-167v-94h-109v-123h109v-298c-204 32-361 208-361 421 0 236 191 427 427 427z" />
<glyph unicode="&#xe0d4;" glyph-name="twitter" horiz-adv-x="1000" d="M162 67h18c69 0 133 21 187 67-42 4-125 83-138 100h54c-66 17-108 75-108 141 21-4 42-8 58-16h9c-36 31-58 77-58 124 0 23 5 46 16 68 75-92 179-142 296-150v37c4 79 71 137 146 137 29 0 58-12 83-29 10-6 21-10 31-10 4 0 8 1 11 2l66 25c-12-29-29-54-54-79 21 4 46 12 67 17l4-5c-21-16-42-37-58-50-4-12-9-25-9-37 0-67-16-134-45-192-67-121-184-200-321-212-32-3-67-7-101-7-56 0-110 11-141 53z" />
<glyph unicode="&#xe0d5;" glyph-name="youtube" d="M930 495c0 0 9-68 9-145v-64c0-68-9-137-9-137s-8-59-34-85c-34-30-68-34-85-34-120 0-299-9-299-9s-222 9-290 9c-17 0-60 4-94 38-26 26-34 86-34 86s-9 68-9 136v64c0 73 9 141 9 141s8 60 34 85c34 30 68 34 85 34 120 0 299 9 299 9s179-9 299-9c17 0 51 0 85-34 26-25 34-85 34-85zM427 213l230 120-230 119v-239z" />
<glyph unicode="&#xe0d6;" glyph-name="no_bag" d="M469 661v-213h-85v277c0 13 9 22 21 22h214c12 0 21-9 21-22v-277h-85v213h-86zM725 107l-298 294h277c13 0 21-8 21-17v-277zM695-102l-64 64c1-1 0-1-1-2 6-7 9-15 9-24 0-24-19-43-42-43-24 0-43 19-43 43 0 21 17 39 38 41 0 1 2 2 5 2h-277c-13 0-21 8-21 17v298l-201 197 60 64 597-598zM384-64c0 23 19 42 43 42 23 0 42-19 42-42 0-24-19-43-42-43-24 0-43 19-43 43z" />
<glyph unicode="&#xe0d7;" glyph-name="taxi" d="M819 649l120-325v-409c0-13-9-22-22-22h-85c-13 0-21 9-21 22v42c0 13-9 22-22 22h-554c-13 0-22-9-22-22v-42c0-13-8-22-21-22h-85c-13 0-22 9-22 22v409l124 325c4 4 9 12 17 12h124c8 0 21 9 21 22v42c0 13 9 22 22 22h243c13 0 21-9 21-22v-42c0-13 9-22 21-22h120c8 0 17-8 21-12zM277 64c34 0 64 30 64 64s-30 64-64 64-64-30-64-64 30-64 64-64zM747 64c34 0 64 30 64 64s-30 64-64 64-64-30-64-64 30-64 64-64zM192 363h640l-81 213-482-4z" />
<glyph unicode="&#xe0d8;" glyph-name="train" d="M384 149v86h256v-86h-256zM896 576c24 0 43-19 43-43v-170c0-24-19-43-43-43h-43v-427h-85v86h-512v-86h-85v427h-43c-24 0-43 19-43 43v170c0 24 19 43 43 43h43v43c0 70 57 128 128 128h426c71 0 128-58 128-128v-43h43zM768 64v256h-512v-256h512zM299 661c-24 0-43-19-43-42v-214h512v214c0 23-19 42-43 42h-426z" />
<glyph unicode="&#xe0d9;" glyph-name="map" d="M661 626l278 78v-691l-277-77-299 91-278-91v690l278 78zM341 110v198l-170-47v-206l165 55h5zM341 396v213l-170-46v-214zM597 47v209l-170 43v-200zM597 342v213l-170 43v-214zM853 79v213l-170-47v-213zM853 378v213l-170-47v-213z" />
<glyph unicode="&#xe0da;" glyph-name="filter" d="M193 510h-108v94h108c16 29 47 48 82 48s66-19 82-48h582v-94h-582c-16-29-47-48-82-48s-66 19-82 48zM831 273c-16-29-47-48-82-48s-66 19-82 48h-582v94h582c16 29 47 48 82 48s66-19 82-48h108v-94h-108zM85 130h203c16 29 47 48 82 48s65-19 82-48h487v-94h-487c-17-29-47-48-82-48s-66 19-82 48h-203v94z" />
<glyph unicode="&#xe0db;" glyph-name="duration" d="M401 132l-30 30c-4 4-6 10-6 15s2 11 6 15l94 94c0 4 4 13 4 17v209c0 13 9 21 22 21h42c13 0 22-8 22-21v-243c0-9 0-13-5-17l-119-120c-4-4-10-6-15-6s-11 2-15 6zM512 747c235 0 427-192 427-427s-192-427-427-427-427 192-427 427c0 111 47 222 124 303l-81 81h213v-213l-72 68c-60-64-98-149-98-239 0-188 153-341 341-341s341 153 341 341-153 341-341 341v86z" />
<glyph unicode="&#xe0dc;" glyph-name="menu" d="M832 747c13 0 21-9 21-22v-810c0-13-8-22-21-22h-640c-13 0-21 9-21 22v810c0 13 8 22 21 22h640zM512 397v162c0 8-4 17-13 17h-21c-9 0-17-9-17-17v-166h-26v166c0 8-8 17-17 17h-21c-9 0-17-9-17-17v-166h-26v166c0 8-8 17-17 17h-21c-9 0-17-9-17-17v-239c0-9 8-17 17-17h59v-226c0-9 9-17 18-17h25c9 0 17 8 17 17v226h60c8 0 17 8 17 17v77zM725 81v435c0 34-30 60-64 60s-64-26-64-55v-197c0-8 9-17 17-17h47v-226c0-8 9-17 17-17h30c9 0 17 9 17 17z" />
<glyph unicode="&#xe0dd;" glyph-name="casino" d="M85 652c0 52 43 95 95 95h664c52 0 95-43 95-95v-664c0-52-43-95-95-95h-664c-52 0-95 43-95 95v664zM180 652v-664h664v664h-664zM749 462c0-52-42-95-95-95-52 0-95 43-95 95 0 53 43 95 95 95 53 0 95-42 95-95zM370 83c-53 0-95 42-95 95 0 52 42 95 95 95 52 0 95-43 95-95 0-53-43-95-95-95z" />
<glyph unicode="&#xe0de;" glyph-name="castle" d="M163 450c-9 0-17 4-26 9-6 6-10 16-10 25 0 10 4 19 10 26l51 55 5 5c5 5 12 7 19 7 9 0 18-4 23-12l56-55c4-4 8-13 8-21 0-22-13-39-30-39h-106zM760 450c-9 0-17 4-21 9-7 6-10 16-10 25 0 10 3 19 10 26l51 55 4 5c6 3 13 6 19 6 8 0 17-4 24-11l51-55c4-4 9-13 9-21 0-22-13-39-30-39h-107zM436 578c-17 0-30 4-39 13-8 11-12 23-12 36 0 12 4 24 12 32l86 73c8 8 20 13 32 13s25-5 36-13l77-77c8-9 13-21 13-34 0-24-18-43-41-43h-164zM875 407c13 0 22-8 22-21v-469c0-13-9-22-22-22h-256c-13 0-21 9-21 22v213c0 13-9 21-21 21h-128c-13 0-22-8-22-21v-213c0-13-8-22-21-22h-256c-13 0-21 9-21 22v469c0 13 8 21 21 21h128c13 0 21-8 21-21v-43c0-12 9-21 22-21h42c13 0 22 9 22 21v171c0 13 8 21 21 21h213c13 0 22-8 22-21v-171c0-12 8-21 21-21h43c12 0 21 9 21 21v43c0 13 8 21 21 21h128z" />
<glyph unicode="&#xe0df;" glyph-name="family" d="M278 663c0 48 38 86 85 86s86-38 86-86c0-47-39-85-86-85s-85 38-85 85zM517 476c13-34 60-197 60-201 4-8-5-17-18-21l-42-9c-9-4-22 5-26 13l-34 120v-192l21-265c0-13-8-21-21-21l-47-5c-2 0-4-1-7-1-10 0-18 8-18 19l-22 256-21-256c-4-9-13-18-26-18l-47 5c-12 0-21 8-21 21l26 269v200l-39-128c-3-9-11-14-18-14-3 0-5 1-7 2l-43 8c-13 4-21 13-17 21 0 0 51 167 64 201 0 4 4 4 8 9 35 26 80 43 126 43 5 0 10 0 15-1 5 1 10 1 16 1 46 0 91-17 129-48 5 0 9-4 9-8zM726 224c-39 0-68 30-73 73 4 38 34 68 73 68h4c39-4 68-34 68-73-4-38-34-68-72-68zM871 79c4-4 4-13 4-17l-21-21c-9-5-17-5-22 0l-29 29 25-98h-30v-68c0-9-4-13-12-13h-30c-9 0-13 4-13 13v68h-30v-68c0-9-4-13-13-13h-30c-8 0-12 4-12 13v68h-30l25 98-30-29c-8-5-17-5-21 0l-21 21c-4 4-4 13 0 17l77 85c4 5 8 9 12 13 16 12 35 18 54 18 29 0 57-12 74-35z" />
<glyph unicode="&#xe0e0;" glyph-name="luxury" d="M85 405h235c4 0 149-426 149-426zM555-21c8 25 102 307 140 426h244c-128-145-384-426-384-426zM384 405h256l-128-388zM239 640c21-64 38-128 60-192h-214c52 64 103 128 154 192zM939 448h-214c22 64 39 128 60 192 51-64 102-128 154-192zM623 448h-222c38 55 73 111 111 166 38-55 73-111 111-166zM482 661c-43-64-81-123-124-187-21 64-42 123-64 187h188zM730 661c-22-59-43-123-64-187-43 64-81 123-124 187h188z" />
<glyph unicode="&#xe0e1;" glyph-name="on_the_beach" d="M701 71c9 2 17 2 26 2 74 0 126-62 191-62v-107c-70 0-120 65-189 65-3 0-5 0-7-1-68 0-119-64-192-64-66 0-124 65-186 65-2 0-4 0-6-1-70 0-109-64-181-64h-7v107c69 4 103 51 167 64 4 1 9 1 14 1 78 0 135-65 203-65 56 0 107 51 167 60zM317 677c-46-67-62-134-62-204 0-55 10-112 23-172l-166-68c-4 24-6 48-6 72 0 150 78 291 211 372zM462 370l-116-47c-13 55-20 111-20 165 0 83 17 160 50 214 103-25 209-123 286-251l-119-47 89-218c1-3 2-7 2-10 0-9-5-17-14-20l-39-17c-3-1-6-2-9-2-10 0-18 5-21 15zM722 476c-77 124-149 218-290 248 33 8 67 12 100 12 140 0 274-71 356-192z" />
<glyph unicode="&#xe0e2;" glyph-name="onsen" d="M875 314c34-30 55-69 64-111 0-141-192-256-427-256s-427 115-427 256c5 42 26 85 64 111 0-120 162-218 363-218s363 94 363 218zM324 412c0 47-34 81-38 119-1 6-1 11-1 17 0 59 39 102 39 145h73c0-51-43-89-43-145 0-47 43-85 43-141 0-46-39-93-43-136h-68c4 51 38 94 38 141zM525 271l-68-4c4 51 42 94 42 140 0 47-34 82-38 124-1 6-1 11-1 17 0 56 35 98 35 139v6h72c0-51-42-89-42-145 0-47 42-85 42-141 0-46-38-93-42-136zM666 412c0 47-35 81-39 119 0 6-1 11-1 17 0 58 40 94 40 145h72c0-51-42-89-42-145 0-47 42-85 42-141 0-46-38-93-42-136h-69c4 48 39 89 39 133v8z" />
<glyph unicode="&#xe0e3;" glyph-name="outdoors" d="M939-31h-854l198 311 229 391zM236 52h555l-90 149c-20-14-48-25-85-25-42 0-75 24-103 45-28 20-52 38-83 38-53 0-74-20-78-24zM430 342c58 0 99-30 132-54 21-16 39-29 54-29 23 0 35 7 41 13l-144 237-98-168c5 1 10 1 15 1z" />
<glyph unicode="&#xe0e4;" glyph-name="resort" d="M897 75c13 0 21-9 21-21v-128c0-13-8-22-21-22h-43c-13 0-21 9-21 22v42c0 13-9 22-21 22h-384c-13 0-22-9-22-22v-42c0-13-8-22-21-22h-51c-13 0-22 9-22 17v77c0 9 0 13-4 17l-128 128c-4 4-6 10-6 15s2 11 6 15l30 30c4 4 10 6 15 6s11-2 15-6l119-124c5-4 9-4 17-4h521zM317 698c-46-67-62-134-62-204 0-55 10-112 23-172l-166-68c-4 24-6 48-6 72 0 150 78 291 211 372zM462 391l-116-47c-13 55-20 111-20 165 0 83 17 160 50 214 103-25 209-123 286-251l-119-47 89-218c1-3 2-6 2-9 0-10-5-18-14-21l-39-17c-3-1-6-1-9-1-9 0-17 4-21 14zM722 497c-77 124-149 218-290 248 33 8 67 12 100 12 140 0 274-71 356-191z" />
<glyph unicode="&#xe0e5;" glyph-name="romantic" d="M751 533c107-38 188-140 188-264 0-154-124-278-278-278-55 0-106 17-149 43-43-26-94-43-149-43-154 0-278 124-278 278 0 151 120 273 262 273h7c56 0 107-17 149-43 18 13 39 22 60 30l-21 43c-4 8 0 17 4 25l43 43c4 4 13 9 17 9h98c9 0 13 0 17-5l47-42c4-9 9-17 4-26zM444 98c-39 47-60 102-60 171 0 68 21 128 60 179-26 9-51 17-81 17-107 0-192-85-192-192s85-192 192-192c30 0 55 4 81 17zM512 149c26 34 43 73 43 120s-17 85-43 119c-26-34-43-72-43-119s17-86 43-120zM661 77c107 0 192 85 192 192 0 106-85 192-192 192-30 0-55-4-81-17 39-51 60-107 60-175 0-69-21-128-60-175 26-9 51-17 81-17z" />
<glyph unicode="&#xe0e6;" glyph-name="ryokan" d="M939 452c1-2 1-5 1-7 0-8-4-16-10-23l-111-85c-3-3-8-5-12-5-8 0-15 4-18 9l-102 145v-64c0-12-9-21-21-21h-158c-13 0-21 9-21 21 0 4 1 9 4 13l153 269h-42l-77-115-56 115h-42l72-166-68-128c-4-5-9-9-17-9h-51c-13 0-22 9-22 21v64l-102-140c-5-6-12-9-19-9-4 0-8 1-11 4l-111 86c-13 4-13 17-8 25l179 282c4 8 13 13 21 13h448c9 0 13-5 17-9zM661 192c13 0 22-9 22-21v-256c0-13-9-22-22-22h-298c-13 0-22 9-22 22v256c0 12 13 21 22 21h298zM341 265v55h342v-55h-342z" />
<glyph unicode="&#xe0e7;" glyph-name="ski_in_ski_out" d="M672 640c0 49 40 90 90 90 49 0 89-41 89-90s-40-90-89-90c-50 0-90 41-90 90zM915 38c13 0 22-8 22-21v-43c0-34-30-64-69-64h-785v86h299c34 38 136 162 136 162 5 4 7 9 7 15 0 5-2 10-7 15-29 25-98 89-123 149h-261c-12 0-22 11-22 24 0 4 2 10 5 14l43 43c4 0 13 4 17 4h226c13 0 26 5 39 17 29 35 102 120 106 124 19 14 41 21 62 21 30 0 59-14 79-42l124-115h128c0-26-13-52-30-69-24-28-56-42-88-42-26 0-52 8-74 25l-26 26c-8 8-17 13-30 13h-21c-13 0-21-5-30-13l-64-64 85-85c11-13 16-28 16-43s-5-30-16-43l-59-60c-9-7-13-18-13-28 0-24 20-48 47-48h213v21c0 13 9 21 22 21h42z" />
<glyph unicode="&#xe0e8;" glyph-name="spa" d="M493 269c-6 3-152 77-152 230 0 152 146 227 152 230l19 10 19-10c6-3 152-78 152-230 0-153-146-227-152-230l-19-10zM512 641c-30-21-85-70-85-142 0-73 55-121 85-142 30 21 85 69 85 142 0 72-55 121-85 142zM903 370l36-6v-36c0-8-2-190-120-307-117-118-299-120-307-120s-190 2-307 120c-118 117-120 299-120 307v37l37 5s10 2 28 2c53 0 157-13 261-96 48-39 80-89 101-138 22 49 53 98 101 138 101 84 202 97 254 97 21 0 34-2 36-3zM265 81c60-61 147-82 200-90-8 59-33 159-108 218-70 57-141 72-183 76 8-52 29-142 91-204zM759 81c63 63 84 153 91 206-43-3-113-19-183-77-75-63-100-161-108-219 53 8 140 29 200 90z" />
<glyph unicode="&#xe0e9;" glyph-name="air_conditioning" d="M939 363v-86h-180l141-140-59-60-201 200h-85v-85l192-196-60-60-137 137v-180h-85v175l-136-136-60 59 200 201v85h-85l-196-196-60 60 137 136h-180v86h180l-141 136 59 60 201-196h85v85l-200 196 64 60 136-137v180h86v-180l136 137 64-55-200-201v-85h85l196 196 60-60-137-136h180z" />
<glyph unicode="&#xe0ea;" glyph-name="dry_cleaning" d="M930 218c4-5 9-9 9-17v-94c0-13-9-22-22-22h-234v-149c0-13-9-21-22-21h-298c-13 0-22 8-22 21v149h-234c-13 0-22 9-22 22v94c0 8 5 12 9 17l375 226v111h43c17 0 34 8 43 25 1 5 2 10 2 14 0 18-11 35-28 42-4 2-9 2-14 2-17 0-35-11-41-28-5-8-13-13-22-13h-47c-10 0-18 9-18 19 0 2 1 5 1 7 9 43 39 77 81 94 15 6 30 8 44 8 51 0 99-32 118-85 6-14 9-29 9-44 0-50-32-98-85-118v-34zM683 171h145l-316 196-307-196h136v21c0 13 9 21 22 21h298c13 0 22-8 22-21v-21z" />
<glyph unicode="&#xe0eb;" glyph-name="internet" d="M681 150c-13-51-35-102-60-153 25 8 51 21 77 38l-56-119c-43-13-89-22-132-22-56 0-111 13-162 30-164 68-263 228-263 396 0 54 10 110 32 163 68 164 228 263 396 263 54 0 110-11 163-33 164-67 263-227 263-395 0-55-10-110-32-164l-56 120c4 17 4 30 4 47 0 30-4 55-12 85h-145c0-30 4-55 4-85s0-56-4-85h98l-43-86h-72zM804 492c-38 72-106 123-183 153 25-51 47-102 60-153h123zM510 662c-34-55-64-111-81-170h162c-17 64-47 119-81 170zM181 236h145c0 29-4 55-4 85s0 55 4 85h-145c-6-28-9-56-9-85s3-58 9-85zM215 150c39-72 107-124 184-153-26 51-47 102-60 153h-124zM339 492c13 51 34 102 60 153-77-30-141-81-184-153h124zM510-20c34 55 64 110 81 170h-162c17-64 47-119 81-170zM412 236h196c4 29 8 55 13 85 0 30-4 55-9 85h-200c-5-30-9-55-9-85s4-56 9-85zM723-8c22 43 107 222 107 222s89-183 106-222c-29 9-55 17-81 26v-124h-51v124c-30-9-51-17-81-26z" />
<glyph unicode="&#xe0ec;" glyph-name="multilingual" d="M548 364h-13c-34 0-64-30-64-64h-124c13-47 34-90 60-128 26 38 47 77 64 124v-180c-21-4-43-8-64-8-175 0-320 145-320 320 0 174 145 320 320 320s320-146 320-320c0-22-4-43-9-64h-64c4 21 9 42 9 64 0 21-4 42-9 64h-106c4-22 4-43 4-64 0-22 0-43-4-64zM407 679c-26-38-47-77-60-128h120c-13 47-34 90-60 128zM326 666c-60-17-111-59-141-110h94c13 38 26 76 47 110zM159 364h107c-4 21-4 42-4 64 0 21 4 42 4 64h-107c-4-22-8-43-8-64 0-22 4-43 8-64zM185 300c30-56 81-94 137-116-17 39-35 77-43 116h-94zM479 364c0 21 5 42 5 64 0 21 0 42-5 64h-149c0-22-4-43-4-64 0-22 4-43 4-64h149zM629 556c-30 51-81 93-137 115 17-39 34-77 43-115h94zM919-3h-73c-4 0-8 0-12-5-26-17-137-98-137-98-8-4-26 0-26 9v72c0 13-8 22-21 22h-119c-13 0-22 8-22 21v277c0 13 9 22 22 22h384c12 0 21-9 21-22v-277c1-2 1-3 1-5 0-8-8-16-18-16z" />
<glyph unicode="&#xe0ed;" glyph-name="conference_center" d="M137 399c0 28 22 51 51 51 28 0 51-23 51-51s-23-51-51-51c-29 0-51 23-51 51zM294 271v-34c0-13-8-21-21-21h-166c-13 0-22 8-22 21v34c0 4 0 13 5 13 21 30 59 47 98 47 42 0 77-17 102-47 4-4 4-9 4-13zM461 693c0 29 23 52 51 52s51-23 51-52c0-28-23-51-51-51s-51 23-51 51zM429 510c-13 0-22 8-22 21v34c0 5 0 13 5 13 21 30 55 47 98 47s77-17 102-47c5-4 5-8 5-13v-34c0-13-9-21-22-21h-166zM777 399c0 28 22 51 51 51 28 0 51-23 51-51s-23-51-51-51c-29 0-51 23-51 51zM934 284c5-4 5-9 5-13v-34c0-13-9-22-22-22h-170c-13 0-22 9-22 22v34c0 4 0 8 5 13 23 30 53 47 89 47h13c38 0 77-17 102-47zM461 79c0 28 23 51 51 51s51-23 51-51-23-51-51-51-51 23-51 51zM510 11c43 0 77-17 102-47 5-5 5-9 5-13v-34c0-13-9-22-22-22h-166c-13 0-22 9-22 22v34c0 4 0 8 5 13 25 30 59 47 98 47zM672 472l64-470h-90l-51 384h-170l-52-384h-85l60 470h324z" />
<glyph unicode="&#xe0ee;" glyph-name="audio" d="M521 725c209-4 375-175 375-384v-405c0-13-9-21-21-21h-214c-12 0-21 8-21 21v299c0 12 9 21 21 21h150v94c-5 164-137 290-295 290h-8c-164-8-295-141-295-304v-80h150c12 0 21-9 21-21v-299c0-13-9-21-21-21h-214c-12 0-21 8-21 21v393c0 217 175 396 393 396z" />
<glyph unicode="&#xe0ef;" glyph-name="beverage" d="M491 631l-119 33 24 83 180-52v-118h150v-555c0-71-58-129-128-129h-172c-70 0-128 58-128 129v555h193v54zM491 492h-107v-64h107v64zM576 428h64v64h-64v-64zM640 342h-256v-320c0-24 19-43 42-43h172c23 0 42 19 42 43v320z" />
<glyph unicode="&#xe0f0;" glyph-name="photo_id" d="M917 661c9 0 22-8 22-21v-640c0-13-9-21-22-21h-810c-13 0-22 8-22 21v640c0 13 9 21 22 21h810zM853 64v512h-682v-512h682zM555 405v86h213v-86h-213zM555 277v86h213v-86h-213zM555 149v86h213v-86h-213zM320 427c0 35 29 64 64 64s64-29 64-64c0-36-29-64-64-64s-64 28-64 64zM277 149c-12 0-21 9-21 22v76c0 5 0 9 4 13 32 40 78 61 125 61 34 0 68-12 97-35l26-26c4-4 4-8 4-13v-76c0-13-9-22-21-22h-214z" />
<glyph unicode="&#xe0f1;" glyph-name="top_three" d="M384 513v128h555v-128h-555zM128 542v5l-43 51c0 4 0 8 5 8l59 17 5 5 34 51c0 4 8 4 8 0l39-56 59-17c5 0 5-4 5-8l-43-51v-5l4-64c0-8-4-8-8-8l-60 25h-4l-56-25c-4 0-8 4-8 8zM384 257v128h555v-128h-555zM235 367l59-12c5-5 9-9 5-13l-43-51v-5l4-64c0-8-4-8-8-8l-60 25h-4l-56-25c-4 0-8 4-8 8l4 64v5l-43 51v4l60 17 4 4 34 56c5 4 9 4 13 0zM384 1v128h555v-128h-555zM235 111l59-12c5-5 9-9 5-13l-43-51v-5l4-64c0-8-4-8-8-8l-60 25h-4l-56-25c-4 0-8 4-8 8l4 64v5l-43 51v4l60 17 4 4 34 56c5 4 9 4 13 0z" />
<glyph unicode="&#xe0f2;" glyph-name="voucher" d="M747 725c12 0 21-13 21-22v-712c0-9-4-13-9-17l-59-51c-5-9-17-9-26 0l-68 55h-4l-73-60c-8-4-17-4-26 0l-72 60h-4l-73-60c-8-4-17-4-25 0l-64 52c-5 4-9 8-9 17v716c0 9 9 22 21 22h470zM597 209v85h-256v-85h256zM683 379v86h-342v-86h342z" />
<glyph unicode="&#xe0f3;" glyph-name="bag" d="M469 661v-213h-85v277c0 13 9 22 21 22h214c12 0 21-9 21-22v-277h-85v213h-86zM385-64c0 23 19 42 42 42 24 0 43-19 43-42 0-24-19-43-43-43-23 0-42 19-42 43zM555-64c0 23 19 42 42 42 24 0 43-19 43-42 0-24-19-43-43-43-23 0-42 19-42 43zM704 401c13 0 21-8 21-17v-388c0-9-8-17-21-17h-384c-13 0-21 8-21 17v388c0 9 8 17 21 17h384z" />
<glyph unicode="&#xe0f4;" glyph-name="television" d="M474 239c-6-4-12-5-18-5-16 0-29 11-29 26v205c0 16 15 27 30 27 6 0 12-2 17-6l153-102c9-6 13-15 13-23s-4-15-13-20zM917 704c13 0 22-9 22-21v-640c0-13-9-22-22-22h-234v-64c0-12-9-21-22-21h-298c-13 0-22 9-22 21v64h-234c-13 0-22 9-22 22v640c0 12 9 21 22 21h810zM853 107v512h-682v-512h682z" />
<glyph unicode="&#xe0f5;" glyph-name="power" d="M832 427c13 0 21-9 21-22v-98c0-8-4-13-8-17l-162-153v-201c0-13-9-21-22-21h-298c-13 0-22 8-22 21v201l-162 153c-4 4-8 13-8 17v98c0 13 8 22 21 22h107v277c0 13 8 21 21 21h85c13 0 22-8 22-21v-277h170v277c0 13 9 21 22 21h85c13 0 21-8 21-21v-277h107z" />
<glyph unicode="&#xe0f6;" glyph-name="usb" d="M640 533h171v-170h-43v-171h-213v-137c25-12 42-42 42-72 0-47-38-85-85-85s-85 38-85 85c0 30 17 60 42 72v52h-213v179c-26 13-43 43-43 72 0 47 39 86 86 86s85-39 85-86c0-29-17-59-43-72v-94h128v384h-85l128 171 128-171h-85v-299h128v86h-43v170z" />
<glyph unicode="&#xe0f7;" glyph-name="seat_regular" d="M747 281c12 0 21-9 21-22v-85c0-13-9-21-21-21h-171c-13 0-21-9-21-22v-51c0-8 4-13 12-17l73-38v-43h-256v43l72 38c9 4 13 9 13 17v51c0 13-8 22-21 22h-73c-8 0-17 4-21 13l-175 418c-1 3-1 6-1 9 0 9 4 17 14 21l81 34c2 1 5 1 7 1 7 0 15-4 19-14l145-341c4-9 12-13 21-13h282z" />
<glyph unicode="&#xe0f8;" glyph-name="seat_angled_bed" d="M832 281c13 0 21-9 21-22v-85c0-13-8-21-21-21h-256c-13 0-21-9-21-22v-51c0-8 4-13 12-17l73-38v-43h-256v43l73 38c8 4 12 9 12 17v51c0 13-8 22-21 22h-21c-5 0-9 4-13 4l-312 316c-4 4-6 9-6 15 0 5 2 10 6 15l60 59c4 5 10 7 15 7s11-2 15-7l273-277c4 0 13-4 17-4h350z" />
<glyph unicode="&#xe0f9;" glyph-name="seat_flat_bed" d="M917 281c13 0 22-9 22-22v-85c0-13-9-21-22-21h-341c-13 0-21-9-21-22v-51c0-8 4-13 12-17l73-38v-43h-256v43l73 38c8 4 12 9 12 17v51c0 13-8 22-21 22h-341c-13 0-22 8-22 21v85c0 13 9 22 22 22h810z" />
<glyph unicode="&#xe0fa;" glyph-name="eye" d="M523 619c186 0 352-124 416-299-64-179-230-299-416-299h-22c-191 0-356 120-416 299 64 175 230 299 416 299h22zM523 94c144 0 276 89 335 226-55 137-187 226-335 226h-22c-148 0-280-89-335-226 55-137 187-226 335-226h22zM510 503c102 0 187-81 187-187 0-103-85-188-187-188s-187 85-187 188c0 102 85 187 187 187zM510 205c61 0 110 47 110 104v7c0 59-51 111-110 111-60 0-110-52-110-111 0-60 50-111 110-111z" />
<glyph unicode="&#xe0fb;" glyph-name="eye_fill" d="M510 427c59 0 110-52 110-111v-7c0-57-49-104-110-104-60 0-111 51-111 111 0 59 51 111 111 111zM523 619c186 0 352-124 416-299-64-179-230-299-416-299h-22c-191 0-356 120-416 299 64 175 230 299 416 299h22zM510 128c102 0 187 85 187 188 0 106-85 187-187 187s-187-85-187-187c0-103 85-188 187-188z" />
<glyph unicode="&#xe0fc;" glyph-name="accessible" d="M727 576c-47 0-85 38-85 85s38 86 85 86 85-39 85-86-38-85-85-85zM834 363c10 0 18-6 18-20 0-3-1-6-1-10l-30-303c-5-9-13-17-26-17l-43 4c-8 4-17 13-17 26l22 209c0 13-9 25-22 25h-85c21-38 34-81 34-128 0-140-115-256-256-256s-256 116-256 256c0 116 77 214 184 244l145 153c4 4 6 10 6 15s-2 11-6 15l-56 51c-8 9-17 9-25 4l-90-59c-3-4-7-5-11-5-7 0-13 4-19 9l-25 34c-2 5-3 10-3 14 0 7 3 13 11 16l150 94c8 4 17 4 25-4l222-209c5-3 9-11 9-18 0-5-1-9-5-12l-119-124zM428-21c94 0 171 76 171 166 0 51-26 98-60 128-13 13-25 17-38 26-13 8-30 12-47 17-9 4-13 4-21 4h-5c-94 0-170-77-170-171s76-170 170-170z" />
<glyph unicode="&#xe0fd;" glyph-name="shopping_bag" d="M679 561h208v-543c0-69-56-125-125-125h-500c-69 0-125 56-125 125v543h208v19c0 92 75 167 167 167s167-75 167-167v-19zM429 580v-19h166v19c0 46-37 83-83 83s-83-37-83-83zM804 18v459h-125v-125h-84v125h-166v-125h-84v125h-125v-459c0-23 19-41 42-41h500c23 0 42 18 42 41z" />
<glyph unicode="&#xe0fe;" glyph-name="classes_workshops" d="M914 429c16-17 25-39 25-60 0-26-12-52-34-69l-178-133c10-11 15-26 15-40 0-12-3-25-11-36s-21-28-36-44c-15-15-35-33-60-42-14-6-28-8-42-8-27 0-52 8-73 17-33 15-90 54-90 54s-127-146-133-149c-9-5-34-19-65-24-8-1-16-2-24-2-28 0-60 9-87 36s-36 59-36 87c0 8 1 16 2 24 5 31 19 56 24 64 4 6 149 134 149 134s-40 57-54 90c-9 21-17 46-17 73 0 14 2 28 8 42 9 25 27 45 42 60 16 15 33 28 44 36s24 11 36 11c15 0 29-5 41-15l132 178c17 22 43 34 69 34 21 0 43-9 60-25zM634 106c6 6 11 13 16 19l-333 333c-6-5-13-11-19-16-12-12-19-22-22-29-1-4-2-8-2-13 0-9 3-22 10-38 10-23 26-47 41-65 13-17 20-37 20-58 0-23-9-47-29-65l-133-117c-4-6-9-18-12-31v-10c0-11 3-19 10-27 8-7 16-10 27-10h10c13 3 25 8 32 11l116 134c18 20 42 29 65 29 21 0 41-7 58-20 18-14 42-31 65-41 16-7 29-10 39-10 4 0 8 1 12 2 7 3 17 10 29 22zM667 228l186 141-63 63-97-98-61 60 98 98-46 46-98-98-60 61 98 97-63 63-141-186z" />
<glyph unicode="&#xe0ff;" glyph-name="fun_games" d="M662 470c11 0 21-10 21-21l4-147c0-2 1-4 1-5l51-184c1-2 1-4 1-6 0-11-10-21-21-21h-413c-2 0-4 0-6 1-9 2-15 11-15 20 0 2 0 4 1 6l51 184v5l4 147c0 11 10 21 21 21h300zM800-84c-69 0-279-1-430-1-63 0-116 0-143 1-42 0-56 10-56 42v44c0 30 14 41 54 41h576c37 0 52-11 52-39v-48c0-29-15-40-53-40zM640 725h42c12 0 22-9 22-21v-170c0-12-10-22-22-22h-341c-11 0-21 10-21 22v170c0 12 10 21 21 21h43c12 0 21-9 21-21v-64h43v64c0 12 10 21 21 21h86c11 0 21-9 21-21v-64h43v64c0 12 9 21 21 21z" />
<glyph unicode="&#xe100;" glyph-name="museums" d="M896-64h-768v85h85v384h-128v88l427 261 427-261v-88h-128v-384h85v-85zM640 21h85v384h-85v-384zM469 21h86v384h-86v-384zM299 21h85v384h-85v-384zM779 491l-267 163-267-163h534z" />
<glyph unicode="&#xe101;" glyph-name="theater_concerts" d="M511 684c0 12 9 21 21 21h214c13 0 21-9 21-21v-128c0-13-8-22-21-22h-150v-422c1-3 1-6 1-9 0-81-59-150-141-166-9-1-18-2-27-2-72 0-138 45-161 113-8 20-11 40-11 60 0 70 44 134 113 158 19 6 39 10 58 10 29 0 58-8 83-23v431z" />
<glyph unicode="&#xe102;" glyph-name="zoo_aquarium" d="M870 115c4-8 4-17 4-25-3-15-16-23-30-23-2 0-5 1-8 1l-60 22c-8-47-30-94-60-137-8-8-8-17 0-26l30-34h-469l21 34c5 9 5 18 0 26-30 38-47 85-55 137l-56-17c-4-5-12-5-21 0-9 6-16 16-16 28 0 5 1 9 3 14l90 179c13 64 42 128 81 180 4 0 4 93 4 93 0 90 68 167 158 184 8 1 16 1 25 1 92 0 172-65 184-159l68-30c9-4 13-8 13-17 0-13-4-21-17-25l-64-13c0-13 0-22 4-34 39-52 64-111 77-175zM601 610c0 28-23 51-51 51s-51-23-51-51 23-51 51-51 51 23 51 51zM640 115v192c-9 64-64 115-128 115s-120-51-128-115v-192c8-64 64-115 128-115s119 51 128 115z" />
<glyph unicode="&#xe103;" glyph-name="food_drink" d="M768 577h149v-555c0-71-57-128-128-128h-611c-23 0-42 19-42 43v107h-29v85h597v-85h-53v-64h138c24 0 43 19 43 42v320h-248c35-30 61-68 71-106h49v-86h-597v86h48c24 87 119 170 250 170 31 0 59-5 86-13v184h192v53l-119 34 24 82 180-52v-117zM247 236h317c-14 24-38 50-73 66-24 12-52 19-86 19-83 0-136-44-158-85zM683 428v64h-107v-64h107zM221-20h345v64h-345v-64zM832 428v64h-64v-64h64z" />
<glyph unicode="&#xe105;" glyph-name="ambience" d="M918 19c12 0 22-11 22-23 0-5-2-10-5-15l-94-86c-4 0-13-4-17-4h-623c-9 0-13 0-17 4l-94 86c-4 5-6 11-6 17 0 11 9 21 23 21h277v384h256v-384h278zM512 493c-47 0-85 38-85 85 0 9 0 17 9 26l59 132c5 9 12 13 19 13 8 0 15-4 20-13l59-132c5-9 5-17 5-26 0-47-39-85-86-85z" />
<glyph unicode="&#xe106;" glyph-name="buffet" d="M546 668c81-9 154-64 179-141h-426c25 77 98 132 170 141v4c0 21 17 38 39 38 21 0 38-17 38-38v-4zM917 271c13 0 22-9 22-21v-192c-4-70-64-128-134-128h-7c-51 0-98 21-124 64-4 4-4 8-8 8-3 1-6 2-9 2-8 0-18-4-21-10-26-39-73-64-124-64s-98 21-124 64c-4 4-4 8-8 8-3 1-5 2-9 2-8 0-18-4-21-10-26-39-73-64-124-64h-7c-70 0-130 58-134 128v192c0 13 9 21 22 21h196l51 128h-55v85h426v-85h-72l60-128h204zM397 271h226l-60 128h-115z" />
<glyph unicode="&#xe107;" glyph-name="delivery" d="M934 303c5-4 5-9 5-13v-153c0-13-9-22-22-22h-38c-9 0-21-8-21-17-9-55-56-98-116-98-59 0-106 43-115 98 0 9-13 17-21 17h-192c-9 0-21-8-21-17-9-55-60-98-116-98-55 0-106 43-111 98 0 9-12 17-21 17h-38c-13 0-22 9-22 22v482c0 8 9 21 22 21h554c13 0 22-9 22-21v-128c0-13 8-22 25-22h94c4 0 13-4 13-8zM277 55c34 0 60 30 60 60 0 34-26 60-60 60s-59-26-59-60 25-60 59-60zM418 337c12 24 18 48 18 70 0 75-60 135-135 135-23 0-47-5-71-17-21-9-38-30-51-51-10-23-15-45-15-66 0-75 62-138 138-138 21 0 43 5 65 16 21 8 38 30 51 51zM747 55c30 0 55 30 59 60 0 34-25 60-59 60s-60-26-60-60 26-60 60-60zM324 503c5 0 9-4 9-8v-102l-4-5-47-47h-13l-13 17c-4 5-4 9 0 13l38 39c5 0 5 0 5 4v81c0 4 4 8 8 8h17z" />
<glyph unicode="&#xe108;" glyph-name="directions" d="M542 734l384-384c8-9 13-19 13-30s-5-21-13-30l-384-384c-9-8-19-13-30-13s-21 5-30 13l-384 384c-8 9-13 19-13 30s5 21 13 30l384 384c9 8 19 13 30 13s21-5 30-13zM597 213l150 150-150 149v-107h-213c-26 0-43-17-43-42v-171h86v128h170v-107z" />
<glyph unicode="&#xe109;" glyph-name="highchair" d="M339 448v235c0 12 9 21 22 21h298c13 0 22-9 22-21v-235h-342zM254 363h516v-64c0-13-8-22-21-22h-90l60-341h-85l-47 256h-158l-47-256h-85l59 341h-81c-13 0-21 9-21 22v64z" />
<glyph unicode="&#xe10a;" glyph-name="outdoor_seating" d="M448 740c-119-77-154-192-179-333h-184c39 175 184 312 363 333zM687 403l-132 4v-426h64c12 0 21-9 21-22v-42c0-13-9-22-21-22h-214c-12 0-21 9-21 22v42c0 11 6 19 15 19 2 0 4-1 6-1h64v426h-132c21 141 90 278 175 342 90-64 154-192 175-342zM576 740c179-21 324-158 363-337h-184c-25 141-60 256-179 337z" />
<glyph unicode="&#xe10b;" glyph-name="private_event" d="M196 382l51 298 252-42-51-299c-9-55-55-102-107-111 0 0-30-166-30-170 0-5 9-9 13-13 34-22 56-51 56-81v-9l-252 47c4 34 38 56 81 64 9 0 13 0 17 4 0 5 30 171 30 171-37 22-61 71-61 119 0 7 0 15 1 22zM282 629l-17-85 170-30 13 85zM896 2l-256-47c-1 5-2 9-2 14 0 29 24 57 57 76 5 4 13 8 13 13 0 4-30 170-30 170-51 9-98 56-106 111l-51 299 251 47 51-299c3-9 4-19 4-29 0-46-24-91-63-112 0 0 25-166 30-170 4-5 12-9 17-9 42-8 76-34 85-64zM589 514l166 30-13 85-166-30z" />
<glyph unicode="&#xe10c;" glyph-name="seating" d="M768 235v-150c0-12-9-21-21-21h-22v-171h-85v171h-256v-171h-85v171h-22c-12 0-21 9-21 21v150h512zM341 320v427h342v-427h-342z" />
<glyph unicode="&#xe10d;" glyph-name="street_food" d="M597 747c188 0 342-47 342-107v-640c0-13-9-21-22-21h-21c0-47-38-86-85-86s-86 39-86 86h-298v-64c0-13-9-22-22-22h-42c-13 0-22 9-22 22v64h-64c-12 0-21 8-21 21v192h-149c-13 0-22 9-22 21v43c0 13 9 21 22 21h746v256c-8-47-42-81-85-85h-9c-52 0-94 33-102 85h-4c-9-47-43-81-86-85h-9c-51 0-93 33-101 85h-5c-8-47-51-85-98-85-55 0-98 47-98 107v85c0 60 154 107 341 107z" />
<glyph unicode="&#xe10e;" glyph-name="takeout" d="M171 405v86h128v-86h-128zM85 235v85h214v-85h-214zM171 64v85h128v-85h-128zM853 491h86v-512h-512v512h85c0 94 77 170 171 170s170-76 170-170zM683 576c-47 0-86-38-86-85h171c0 47-38 85-85 85z" />
<glyph unicode="&#xe10f;" glyph-name="waitstaff" d="M640 267h213c0-51-136-64-140-69-43-51-82-102-111-157-9-15-24-22-39-22-7 0-14 2-21 4-13 5-111 116-111 116v-226h-346v396c5 26 22 52 43 64 43 26 85 43 137 43 55 0 106-13 149-47 34-26 153-209 153-209zM273 727c73 0 132-61 132-136s-59-137-132-137-132 62-132 137 59 136 132 136zM576 399h341c13 0 22-9 22-21v-47c0-13-9-22-22-22h-341c-13 0-21 9-21 22v47c0 12 8 21 21 21z" />
<glyph unicode="&#xe110;" glyph-name="wine_beer" d="M213 747h598v-321c-1-3-1-6-1-9-1-8-2-18-4-30-5-24-14-56-33-89-36-60-102-117-218-128v-191h170v-86h-426v86h170v191c-116 11-182 68-218 129-19 32-28 64-33 88-2 12-3 22-4 30 0 3 0 6-1 9v321zM725 430v67h-426v-73c0-5 1-12 3-20 3-18 10-40 23-62 24-42 74-89 187-89s163 47 187 89c13 22 20 44 23 62 2 8 3 15 3 20v6zM725 582v79h-426v-79h426z" />
<glyph unicode="&#xe111;" glyph-name="hospital" d="M107 747h810c13 0 22-9 22-22v-810c0-13-9-22-22-22h-810c-13 0-22 9-22 22v810c0 13 9 22 22 22zM768 235v170h-171v171h-170v-171h-171v-170h171v-171h170v171h171z" />
<glyph unicode="&#xe112;" glyph-name="office" d="M725 747c13 0 22-13 22-26v-802c0-13-9-26-22-26h-426c-13 0-22 9-22 22v806c0 13 9 26 22 26h426zM491 21v86h-86v-86h86zM491 192v85h-86v-85h86zM491 363v85h-86v-85h86zM619 21v86h-86v-86h86zM619 192v85h-86v-85h86zM619 363v85h-86v-85h86zM491 533v86h-86v-86h86zM619 533v86h-86v-86h86z" />
<glyph unicode="&#xe113;" glyph-name="doors" d="M939 725v-810c0-13-9-22-22-22h-810c-13 0-22 9-22 22v482c0 4 5 13 5 17l328 328c4 0 13 5 17 5h482c13 0 22-9 22-22zM213 405h640v256h-384zM725 320v-85h128v85h-128z" />
<glyph unicode="&#xe114;" glyph-name="fuel" d="M772 610l167-162v-405c0-13-9-22-22-22h-213c-13 0-21 9-21 22v320h-86v-384h22c12 0 21-9 21-22v-64h-555v64c0 13 9 22 22 22h21v746c0 13 9 22 21 22h427c13 0 21-9 21-22v-277h150c12 0 21-9 21-21v-320h85v307l-140 141c-9 4-9 21 0 25l29 30c5 4 10 7 15 7 6 0 11-3 15-7zM512 448v213h-299v-213h299z" />
<glyph unicode="&#xe115;" glyph-name="transmission" d="M853 747c47 0 86-38 86-86 0-31-18-58-43-73v-289c0-13-8-22-21-22h-320v-225c26-14 43-42 43-73 0-48-38-86-85-86s-85 38-85 86c0 31 17 58 42 73v225h-256v-225c25-14 43-42 43-73 0-48-38-86-85-86s-86 38-86 86c0 31 17 58 42 73v535c-25 15-43 42-43 74 0 47 39 85 86 85s85-38 85-85c0-32-17-59-42-74v-224h256v225c-25 15-42 42-42 73 0 47 38 85 85 85s85-38 85-85c0-32-17-60-43-74v-224h256v225c-26 14-43 42-43 73 0 48 38 86 85 86z" />
<glyph unicode="&#xe116;" glyph-name="gallery_dynamic" d="M107 747h512c11 0 21-10 21-22v-341c0-12-10-21-21-21h-512c-12 0-22 9-22 21v341c0 12 10 22 22 22zM107 277h170c12 0 22-9 22-21v-341c0-12-10-22-22-22h-170c-12 0-22 10-22 22v341c0 12 10 21 22 21zM747 747h170c12 0 22-10 22-22v-341c0-12-10-21-22-21h-170c-12 0-22 9-22 21v341c0 12 10 22 22 22zM405 277h512c12 0 22-9 22-21v-341c0-12-10-22-22-22h-512c-11 0-21 10-21 22v341c0 12 10 21 21 21z" />
<glyph unicode="&#xe117;" glyph-name="weather_clear_night" d="M350 500c-17-38-26-78-27-120 2-186 151-337 337-341-60-66-144-103-233-103-165 0-251 80-299 209-8 25-12 52-12 79v6c7 133 103 244 234 270zM743 713l50-101 112-16-81-79 19-110-100 52-99-52 19 110-81 79 112 16zM560 355l33-67 75-12-54-52 13-75-67 35-67-35 13 75-55 52 75 12z" />
<glyph unicode="&#xe118;" glyph-name="weather_cloud" d="M832 320c59 0 107-48 107-107 0-51-36-95-86-106h-597c-94 0-171 76-171 170 0 95 77 171 171 171 16 0 31-3 47-7 13 63 62 113 125 129 14 3 28 5 41 5 77 0 147-52 166-130 9 2 17 3 26 3h2c74 0 137-54 148-128 7 1 14 1 21 0z" />
<glyph unicode="&#xe119;" glyph-name="weather_cloudy" d="M809 317c7 2 23 3 23 3 59 0 107-48 107-107 0-51-36-95-86-106h-597c-94 0-171 76-171 170 0 95 77 171 171 171 16 0 31-3 46-7 14 63 63 113 126 129 14 3 27 5 41 5 77 0 146-52 165-130 9 2 18 3 27 3 75 0 138-56 148-131zM469 640c-27 0-55-5-81-15v10c17 63 74 107 139 107h11c62 0 118-40 137-100 8 1 16 1 23 0h7c58 0 109-41 121-99 7 1 22 0 23 0h4c46 0 83-35 86-80-2-42-33-77-74-82h-7l-3 3c-31 72-99 121-177 128-39 79-120 128-208 128h-1z" />
<glyph unicode="&#xe11a;" glyph-name="weather_cloudy_night" d="M832 277c59 0 107-47 107-106 0-52-36-96-86-107h-597c-94 0-171 76-171 171 0 94 77 170 171 170 16 0 31-2 46-7 14 64 63 114 126 129 14 4 27 5 41 5 77 0 146-52 165-129 9 1 18 2 27 2 75 0 138-56 148-130 7 1 15 2 23 2zM678 468c-18 35-44 65-76 88v20c2 77 57 143 132 161-9-23-14-47-14-71 0-110 95-197 202-197h1c-29-33-69-54-112-60-36 35-83 56-133 59z" />
</font>
</defs>
</svg>
